SplineFontDB: 3.0
FontName: Antonio-Light
FullName: Antonio Light
FamilyName: Antonio
Weight: Light
Copyright: 2011-12 Vernon Adams
Version: 1
ItalicAngle: 0
UnderlinePosition: 0
UnderlineWidth: 0
Ascent: 1638
Descent: 410
UFOAscent: 1782
UFODescent: -647
LayerCount: 2
Layer: 0 0 "Back"  1
Layer: 1 0 "Fore"  0
FSType: 0
OS2Version: 0
OS2_WeightWidthSlopeOnly: 0
OS2_UseTypoMetrics: 0
CreationTime: 1358387396
ModificationTime: 1358387611
PfmFamily: 17
TTFWeight: 300
TTFWidth: 1
LineGap: 0
VLineGap: 0
OS2TypoAscent: 1638
OS2TypoAOffset: 0
OS2TypoDescent: -358
OS2TypoDOffset: 0
OS2TypoLinegap: 0
OS2WinAscent: 1638
OS2WinAOffset: 0
OS2WinDescent: 358
OS2WinDOffset: 0
HheadAscent: 1638
HheadAOffset: 0
HheadDescent: -358
HheadDOffset: 0
OS2Vendor: 'newt'
Lookup: 258 0 0 "'kern' Horizontal Kerning lookup 0"  {"'kern' Horizontal Kerning lookup 0 per glyph data 0"  "'kern' Horizontal Kerning lookup 0 kerning class 1"  } ['kern' ('DFLT' <'dflt' > 'latn' <'dflt' > ) ]
MarkAttachClasses: 1
DEI: 91125
KernClass2: 16 27 "'kern' Horizontal Kerning lookup 0 kerning class 1" 
 89 A Aacute Abreve Acircumflex Adieresis Agrave Amacron Aogonek Aring Atilde uni0200 uni0202
 9 B uni1E02
 47 C Cacute Ccaron Ccedilla Ccircumflex Cdotaccent
 16 D Dcaron uni1E0A
 9 F uni1E1E
 52 G Gbreve Gcircumflex Gcommaaccent Gdotaccent uni01F4
 13 J Jcircumflex
 14 K Kcommaaccent
 28 L Lacute Lcaron Lcommaaccent
 9 P uni1E56
 1 V
 37 W Wacute Wcircumflex Wdieresis Wgrave
 37 Y Yacute Ycircumflex Ydieresis Ygrave
 89 o oacute obreve ocircumflex odieresis ograve ohungarumlaut omacron otilde uni020D uni020F
 44 r racute rcaron rcommaaccent uni0211 uni0213
 89 A Aacute Abreve Acircumflex Adieresis Agrave Amacron Aogonek Aring Atilde uni0200 uni0202
 47 C Cacute Ccaron Ccedilla Ccircumflex Cdotaccent
 52 G Gbreve Gcircumflex Gcommaaccent Gdotaccent uni01F4
 13 J Jcircumflex
 89 O Oacute Obreve Ocircumflex Odieresis Ograve Ohungarumlaut Omacron Otilde uni020C uni020E

StartChar: .notdef
Encoding: 65536 -1 0
Width: 1024
VWidth: 0
Flags: HW
LayerCount: 2
UndoRedoHistory
Layer: 1
Undoes
EndUndoes
Redoes
EndRedoes
EndUndoRedoHistory
Fore
SplineSet
820 102 m 1
 204 102 l 1
 204 990 l 1
 820 990 l 1
 820 102 l 1
102 1092 m 1
 102 0 l 1
 922 0 l 1
 922 1092 l 1
 102 1092 l 1
EndSplineSet
EndChar

StartChar: A
Encoding: 65 65 1
Width: 860
VWidth: 0
Flags: HW
LayerCount: 2
UndoRedoHistory
Layer: 1
Undoes
EndUndoes
Redoes
EndRedoes
EndUndoRedoHistory
Fore
SplineSet
339 1760 m 1
 56 0 l 1
 197 0 l 1
 250.453252033 357 l 1
 601.951219512 357 l 1
 660 0 l 1
 804 0 l 1
 491 1760 l 1
 339 1760 l 1
581.951219512 480 m 1
 268.869918699 480 l 1
 418 1476 l 1
 420 1476 l 1
 581.951219512 480 l 1
EndSplineSet
EndChar

StartChar: AE
Encoding: 198 198 2
Width: 1168
VWidth: 0
Flags: HW
LayerCount: 2
UndoRedoHistory
Layer: 1
Undoes
EndUndoes
Redoes
EndRedoes
EndUndoRedoHistory
Fore
SplineSet
583 483 m 1
 320 483 l 1
 565 1645 l 1
 583 1646 l 1
 583 483 l 1
465 1760 m 1
 75 0 l 1
 215 0 l 1
 291 357 l 1
 583 357 l 1
 583 0 l 1
 1054 0 l 1
 1054 118 l 1
 732 118 l 1
 732 836 l 1
 1038 836 l 1
 1038 956 l 1
 732 956 l 1
 732 1644 l 1
 1057 1644 l 1
 1057 1760 l 1
 465 1760 l 1
EndSplineSet
EndChar

StartChar: B
Encoding: 66 66 12
Width: 885
VWidth: 0
Flags: HW
LayerCount: 2
UndoRedoHistory
Layer: 1
Undoes
EndUndoes
Redoes
EndRedoes
EndUndoRedoHistory
Fore
SplineSet
421 1629 m 2
 547.324914245 1629 593.544301928 1597.3392965 596 1349 c 1
 596 1025 572 1004 443 1004 c 2
 309 1004 l 1
 309 1629 l 1
 421 1629 l 2
470 884 m 2
 593.39270501 884 618.994590105 785.218616533 620 536 c 1
 620 214 593 128 467 128 c 2
 309 128 l 1
 309 884 l 1
 470 884 l 2
160 1760 m 1
 160 0 l 1
 462 0 l 2
 706 0 764 152 769 487 c 1
 769 518 l 2
 769 712 745 892 632 947 c 1
 730 1011 745 1136 745 1343 c 2
 745 1366 l 1
 742 1647 691 1760 417 1760 c 2
 160 1760 l 1
EndSplineSet
EndChar

StartChar: C
Encoding: 67 67 13
Width: 865
VWidth: 0
Flags: HW
LayerCount: 2
UndoRedoHistory
Layer: 1
Undoes
EndUndoes
Redoes
EndRedoes
EndUndoRedoHistory
Fore
SplineSet
134 1251 m 2
 134 550 l 2
 134 180 188 -20 446 -20 c 0
 702 -20 748 183 748 552 c 2
 748 692 l 1
 598 692 l 1
 598 551 l 2
 598 228 575 102 445 102 c 0
 309 102 283 227 283 552 c 2
 283 1258 l 2
 283 1520 318 1660 451 1660 c 0
 580 1660 598 1518 598 1257 c 2
 598 1087 l 1
 749 1087 l 1
 749 1239 l 2
 749 1545 737 1782 452 1782 c 0
 172 1782 134 1550 134 1251 c 2
EndSplineSet
EndChar

StartChar: D
Encoding: 68 68 19
Width: 903
VWidth: 0
Flags: HW
LayerCount: 2
UndoRedoHistory
Layer: 1
Undoes
EndUndoes
Redoes
EndRedoes
EndUndoRedoHistory
Fore
SplineSet
621 1274 m 2
 622 519 l 2
 622 194 559 128 430 128 c 2
 307 128 l 1
 307 1636 l 1
 439 1636 l 2
 563 1636 621 1534 621 1274 c 2
159 1760 m 1
 159 0 l 1
 424 0 l 2
 679 0 771 138 771 504 c 2
 770 1258 l 2
 770 1564 715 1760 430 1760 c 2
 159 1760 l 1
EndSplineSet
EndChar

StartChar: Delta
Encoding: 916 916 22
Width: 868
VWidth: 0
Flags: HW
LayerCount: 2
UndoRedoHistory
Layer: 1
Undoes
EndUndoes
Redoes
EndRedoes
EndUndoRedoHistory
Fore
SplineSet
219.417 123 m 1
 422 1476 l 1
 424 1476 l 1
 644 123 l 1
 219.417 123 l 1
495 1760 m 1
 343 1760 l 1
 60 0 l 1
 808 0 l 1
 495 1760 l 1
EndSplineSet
EndChar

StartChar: E
Encoding: 69 69 23
Width: 711
VWidth: 0
Flags: HW
LayerCount: 2
UndoRedoHistory
Layer: 1
Undoes
EndUndoes
Redoes
EndRedoes
EndUndoRedoHistory
Fore
SplineSet
160 1760 m 1
 160 0 l 1
 622 0 l 1
 622 118 l 1
 309 118 l 1
 309 835 l 1
 606 835 l 1
 606 956 l 1
 309 956 l 1
 309 1644 l 1
 625 1644 l 1
 625 1760 l 1
 160 1760 l 1
EndSplineSet
EndChar

StartChar: Euro
Encoding: 8364 8364 34
Width: 1076
VWidth: 0
Flags: HW
LayerCount: 2
UndoRedoHistory
Layer: 1
Undoes
EndUndoes
Redoes
EndRedoes
EndUndoRedoHistory
Fore
SplineSet
23 1076 m 1
 23 986 l 1
 154 986 l 1
 154 849 l 1
 23 849 l 1
 23 751 l 1
 508 751 l 1
 508 849 l 1
 224 849 l 1
 224 986 l 1
 508 986 l 1
 508 1076 l 1
 23 1076 l 1
EndSplineSet
Refer: 13 67 N 1 0 0 1 0 0 2
EndChar

StartChar: F
Encoding: 70 70 35
Width: 690
VWidth: 0
Flags: HW
LayerCount: 2
UndoRedoHistory
Layer: 1
Undoes
EndUndoes
Redoes
EndRedoes
EndUndoRedoHistory
Fore
SplineSet
160 1760 m 1
 160 0 l 1
 308 0 l 1
 308 886 l 1
 605 886 l 1
 605 1005 l 1
 308 1005 l 1
 308 1644 l 1
 622 1644 l 1
 622 1760 l 1
 160 1760 l 1
EndSplineSet
EndChar

StartChar: G
Encoding: 71 71 36
Width: 889
VWidth: 0
Flags: HW
LayerCount: 2
UndoRedoHistory
Layer: 1
Undoes
EndUndoes
Redoes
EndRedoes
EndUndoRedoHistory
Fore
SplineSet
134 1245 m 2
 134 532 l 2
 134 139 221 -20 417 -20 c 0
 526 -20 586 23 633 102 c 1
 649 0 l 1
 747 0 l 1
 747 890 l 1
 448 890 l 1
 448 763 l 1
 599 763 l 1
 599 541 l 2
 599 226 570 102 443 102 c 0
 310 102 283 225 283 543 c 2
 283 1261 l 2
 283 1551 323 1660 449 1660 c 0
 571 1660 595 1555 595 1372 c 2
 595 1100 l 1
 747 1100 l 1
 747 1247 l 2
 747 1547 730 1782 454 1782 c 0
 172 1782 134 1546 134 1245 c 2
EndSplineSet
EndChar

StartChar: H
Encoding: 72 72 41
Width: 940
VWidth: 0
Flags: HW
LayerCount: 2
UndoRedoHistory
Layer: 1
Undoes
EndUndoes
Redoes
EndRedoes
EndUndoRedoHistory
Fore
SplineSet
631 1760 m 1
 631 998 l 1
 309 998 l 1
 309 1760 l 1
 160 1760 l 1
 160 0 l 1
 309 0 l 1
 309 886 l 1
 631 886 l 1
 631 0 l 1
 780 0 l 1
 780 1760 l 1
 631 1760 l 1
EndSplineSet
EndChar

StartChar: Hbar
Encoding: 294 294 42
Width: 932
VWidth: 0
Flags: HW
LayerCount: 2
UndoRedoHistory
Layer: 1
Undoes
EndUndoes
Redoes
EndRedoes
EndUndoRedoHistory
Fore
SplineSet
55 1498 m 1
 55 1416 l 1
 900 1416 l 1
 900 1498 l 1
 55 1498 l 1
EndSplineSet
Refer: 41 72 N 1 0 0 1 0 0 2
EndChar

StartChar: I
Encoding: 73 73 44
Width: 504
VWidth: 0
Flags: HW
LayerCount: 2
UndoRedoHistory
Layer: 1
Undoes
EndUndoes
Redoes
EndRedoes
EndUndoRedoHistory
Fore
SplineSet
178 1760 m 1
 178 0 l 1
 327 0 l 1
 327 1760 l 1
 178 1760 l 1
EndSplineSet
EndChar

StartChar: J
Encoding: 74 74 55
Width: 798
VWidth: 0
Flags: HW
LayerCount: 2
UndoRedoHistory
Layer: 1
Undoes
EndUndoes
Redoes
EndRedoes
EndUndoRedoHistory
Fore
SplineSet
497 1760 m 1
 497 418 l 2
 497 234 503 103 371 103 c 0
 241 103 245 241 245 402 c 2
 245 540 l 1
 94 540 l 1
 94 389 l 2
 94 112 160 -21 377 -21 c 0
 572 -21 646 118 646 420 c 2
 646 1760 l 1
 497 1760 l 1
EndSplineSet
EndChar

StartChar: K
Encoding: 75 75 57
Width: 827
VWidth: 0
Flags: HW
LayerCount: 2
UndoRedoHistory
Layer: 1
Undoes
EndUndoes
Redoes
EndRedoes
EndUndoRedoHistory
Fore
SplineSet
664 1760 m 1
 309 893 l 1
 309 1760 l 1
 160 1760 l 1
 160 0 l 1
 311 0 l 1
 311 860 l 1
 677 0 l 1
 831 0 l 1
 446 891 l 1
 808 1760 l 1
 664 1760 l 1
EndSplineSet
EndChar

StartChar: L
Encoding: 76 76 59
Width: 639
VWidth: 0
Flags: HW
LayerCount: 2
UndoRedoHistory
Layer: 1
Undoes
EndUndoes
Redoes
EndRedoes
EndUndoRedoHistory
Fore
SplineSet
160 1760 m 1
 160 0 l 1
 621 0 l 1
 621 118 l 1
 309 118 l 1
 309 1760 l 1
 160 1760 l 1
EndSplineSet
EndChar

StartChar: Lcaron
Encoding: 317 317 61
Width: 708
VWidth: 0
Flags: HW
LayerCount: 2
UndoRedoHistory
Layer: 1
Undoes
EndUndoes
Redoes
EndRedoes
EndUndoRedoHistory
Fore
SplineSet
589 1764 m 1
 589 1571 l 1
 689 1571 l 1
 647 1298 l 1
 708 1298 l 1
 787 1580 l 1
 787 1764 l 1
 589 1764 l 1
EndSplineSet
Refer: 59 76 N 1 0 0 1 0 0 2
EndChar

StartChar: Lslash
Encoding: 321 321 64
Width: 705
VWidth: 0
Flags: HW
LayerCount: 2
UndoRedoHistory
Layer: 1
Undoes
EndUndoes
Redoes
EndRedoes
EndUndoRedoHistory
Fore
SplineSet
-1 916 m 1
 -1 794 l 1
 497 1011 l 1
 497 1133 l 1
 -1 916 l 1
EndSplineSet
Refer: 59 76 N 1 0 0 1 0 0 2
EndChar

StartChar: M
Encoding: 77 77 65
Width: 1198
VWidth: 0
Flags: HW
LayerCount: 2
UndoRedoHistory
Layer: 1
Undoes
EndUndoes
Redoes
EndRedoes
EndUndoRedoHistory
Fore
SplineSet
871 1760 m 1
 604 282 l 1
 327 1760 l 1
 160 1760 l 1
 160 0 l 1
 296 0 l 1
 296 754 l 1
 273 1463 l 1
 533 38 l 1
 675 38 l 1
 926 1463 l 1
 903 754 l 1
 903 0 l 1
 1038 0 l 1
 1038 1760 l 1
 871 1760 l 1
EndSplineSet
EndChar

StartChar: N
Encoding: 78 78 66
Width: 971
VWidth: 0
Flags: HW
LayerCount: 2
UndoRedoHistory
Layer: 1
Undoes
EndUndoes
Redoes
EndRedoes
EndUndoRedoHistory
Fore
SplineSet
681 1760 m 1
 681 1005 l 1
 696 399 l 1
 264 1760 l 1
 160 1760 l 1
 160 0 l 1
 300 0 l 1
 300 850 l 1
 290 1326 l 1
 695 0 l 1
 811 0 l 1
 811 1760 l 1
 681 1760 l 1
EndSplineSet
EndChar

StartChar: O
Encoding: 79 79 71
Width: 887
VWidth: 0
Flags: HW
LayerCount: 2
UndoRedoHistory
Layer: 1
Undoes
EndUndoes
Redoes
EndRedoes
EndUndoRedoHistory
Fore
SplineSet
604 1280 m 2
 604 519 l 2
 604 196 573 102 445 102 c 0
 312 102 283 196 283 519 c 2
 283 1281 l 2
 283 1543 318 1660 452 1660 c 0
 579 1660 604 1545 604 1280 c 2
134 1268 m 2
 134 519 l 2
 134 151 190 -20 445 -20 c 0
 700 -20 753 151 753 519 c 2
 753 1268 l 2
 753 1571 734 1782 452 1782 c 0
 170 1782 134 1571 134 1268 c 2
EndSplineSet
EndChar

StartChar: OE
Encoding: 338 338 72
Width: 1189
VWidth: 0
Flags: HW
LayerCount: 2
UndoRedoHistory
Layer: 1
Undoes
EndUndoes
Redoes
EndRedoes
EndUndoRedoHistory
Fore
SplineSet
602 126 m 1
 442 126 l 1
 308 127 279 195 279 518 c 2
 279 1282 l 2
 279 1544 315 1634 449 1634 c 2
 602 1634 l 1
 602 126 l 1
449 1760 m 2
 167 1760 130 1572 130 1269 c 2
 130 519 l 2
 130 151 187 0 442 0 c 2
 1076 0 l 1
 1076 118 l 1
 751 118 l 1
 751 836 l 1
 1059 836 l 1
 1059 956 l 1
 751 956 l 1
 751 1644 l 1
 1078 1644 l 1
 1078 1760 l 1
 449 1760 l 2
EndSplineSet
EndChar

StartChar: Oslash
Encoding: 216 216 80
Width: 900
VWidth: 0
Flags: HW
LayerCount: 2
UndoRedoHistory
Layer: 1
Undoes
EndUndoes
Redoes
EndRedoes
EndUndoRedoHistory
Fore
SplineSet
57 -166 m 1
 156 -206 l 1
 892 1870 l 1
 785 1906 l 1
 57 -166 l 1
EndSplineSet
Refer: 71 79 N 1 0 0 1 0 0 2
EndChar

StartChar: P
Encoding: 80 80 82
Width: 843
VWidth: 0
Flags: HW
LayerCount: 2
UndoRedoHistory
Layer: 1
Undoes
EndUndoes
Redoes
EndRedoes
EndUndoRedoHistory
Fore
SplineSet
622 1263 m 1
 622 1229 l 2
 622 915 591 815 467 815 c 2
 309 815 l 1
 309 1636 l 1
 474 1636 l 2
 598 1636 623 1520 622 1263 c 1
160 1760 m 1
 160 0 l 1
 309 0 l 1
 309 689 l 1
 457 689 l 2
 712 689 771 863 771 1231 c 2
 771 1249 l 1
 772 1548 749 1760 466 1760 c 2
 160 1760 l 1
EndSplineSet
EndChar

StartChar: Q
Encoding: 81 81 83
Width: 887
VWidth: 0
Flags: HW
LayerCount: 2
UndoRedoHistory
Layer: 1
Undoes
EndUndoes
Redoes
EndRedoes
EndUndoRedoHistory
Fore
SplineSet
409 -17 m 1
 622 -247 l 1
 694 -176 l 1
 518 27 l 1
 409 -17 l 1
EndSplineSet
Refer: 71 79 N 1 0 0 1 0 0 2
EndChar

StartChar: R
Encoding: 82 82 84
Width: 903
VWidth: 0
Flags: HW
LayerCount: 2
UndoRedoHistory
Layer: 1
Undoes
EndUndoes
Redoes
EndRedoes
EndUndoRedoHistory
Fore
SplineSet
623 1335 m 2
 623 1322 l 2
 623 1006 592 968 464 968 c 2
 308 968 l 1
 308 1636 l 1
 475 1636 l 2
 597 1636 623 1594 623 1335 c 2
160 1760 m 1
 160 0 l 1
 309 0 l 1
 309 868 l 1
 467 858 l 1
 627 858 623 798 623 557 c 0
 623 82 624 41 645 0 c 1
 793 0 l 1
 771 58 771 84 771 164 c 0
 771 764 746 903 610 925 c 1
 733 959 772 1100 772 1326 c 0
 772 1630 742 1760 459 1760 c 2
 160 1760 l 1
EndSplineSet
EndChar

StartChar: S
Encoding: 83 83 88
Width: 795
VWidth: 0
Flags: HW
LayerCount: 2
UndoRedoHistory
Layer: 1
Undoes
EndUndoes
Redoes
EndRedoes
EndUndoRedoHistory
Fore
SplineSet
91 1346 m 0
 91 1144 222 1021 315 930 c 1
 417 833 l 1
 513 740 572 633 572 452 c 0
 572 204 565 108 420 108 c 0
 281 108 257 224 257 526 c 2
 257 706 l 1
 105 706 l 1
 105 523 l 2
 105 224 131 -20 411 -20 c 0
 676 -20 724 167 724 436 c 0
 724 668 625 829 511 946 c 1
 415 1043 l 1
 301 1161 240 1202 240 1371 c 0
 240 1567 286 1654 403 1654 c 0
 532 1654 542 1517 542 1253 c 2
 542 1143 l 1
 695 1143 l 1
 695 1242 l 2
 695 1545 691 1782 402 1782 c 0
 136 1782 91 1599 91 1346 c 0
EndSplineSet
EndChar

StartChar: T
Encoding: 84 84 94
Width: 577
VWidth: 0
Flags: HW
LayerCount: 2
UndoRedoHistory
Layer: 1
Undoes
EndUndoes
Redoes
EndRedoes
EndUndoRedoHistory
Fore
SplineSet
40 1760 m 1
 40 1644 l 1
 224 1644 l 1
 224 0 l 1
 372 0 l 1
 372 1644 l 1
 537 1644 l 1
 537 1760 l 1
 40 1760 l 1
EndSplineSet
EndChar

StartChar: Thorn
Encoding: 222 222 96
Width: 876
VWidth: 0
Flags: HW
LayerCount: 2
UndoRedoHistory
Layer: 1
Undoes
EndUndoes
Redoes
EndRedoes
EndUndoRedoHistory
Fore
SplineSet
640 1008 m 2
 640 972 l 2
 640 657 609 560 485 560 c 2
 326 560 l 1
 326 1377 l 1
 491 1377 l 2
 615 1377 640 1264 640 1008 c 2
177 1760 m 1
 177 0 l 1
 326 0 l 1
 326 434 l 1
 474 434 l 2
 729 434 788 606 788 973 c 2
 788 993 l 1
 789 1291 765 1501 483 1501 c 2
 326 1501 l 1
 326 1760 l 1
 177 1760 l 1
EndSplineSet
EndChar

StartChar: U
Encoding: 85 85 97
Width: 911
VWidth: 0
Flags: HW
LayerCount: 2
UndoRedoHistory
Layer: 1
Undoes
EndUndoes
Redoes
EndRedoes
EndUndoRedoHistory
Fore
SplineSet
616 1760 m 1
 616 456 l 2
 616 227 616 102 458 102 c 0
 301 102 295 228 295 457 c 2
 295 1760 l 1
 146 1760 l 1
 146 452 l 2
 146 132 208 -21 457 -21 c 0
 706 -21 765 132 765 452 c 2
 765 1760 l 1
 616 1760 l 1
EndSplineSet
EndChar

StartChar: V
Encoding: 86 86 108
Width: 878
VWidth: 0
Flags: HW
LayerCount: 2
UndoRedoHistory
Layer: 1
Undoes
EndUndoes
Redoes
EndRedoes
EndUndoRedoHistory
Fore
SplineSet
672 1760 m 1
 565 1062 l 1
 453 318 l 1
 452 318 l 1
 326 1062 l 1
 206 1760 l 1
 63 1760 l 1
 376 0 l 1
 531 0 l 1
 815 1760 l 1
 672 1760 l 1
EndSplineSet
EndChar

StartChar: W
Encoding: 87 87 109
Width: 1338
VWidth: 0
Flags: HW
LayerCount: 2
UndoRedoHistory
Layer: 1
Undoes
EndUndoes
Redoes
EndRedoes
EndUndoRedoHistory
Fore
SplineSet
1127 1760 m 1
 979 322 l 1
 744 1760 l 1
 620 1760 l 1
 400 322 l 1
 216 1760 l 1
 70 1760 l 1
 319 0 l 1
 456 0 l 1
 690 1448 l 1
 908 0 l 1
 1055 0 l 1
 1268 1760 l 1
 1127 1760 l 1
EndSplineSet
EndChar

StartChar: X
Encoding: 88 88 114
Width: 754
VWidth: 0
Flags: HW
LayerCount: 2
UndoRedoHistory
Layer: 1
Undoes
EndUndoes
Redoes
EndRedoes
EndUndoRedoHistory
Fore
SplineSet
458.96462358 852.881111722 m 1
 681 1760 l 1
 557 1760 l 1
 395.168741973 1101.28985426 l 1
 226 1760 l 1
 89 1760 l 1
 307.016889055 918.531305403 l 1
 74 0 l 1
 198 0 l 1
 368.727616321 680.34955104 l 1
 545 0 l 1
 678 0 l 1
 458.96462358 852.881111722 l 1
EndSplineSet
EndChar

StartChar: Y
Encoding: 89 89 115
Width: 802
VWidth: 0
Flags: HW
LayerCount: 2
UndoRedoHistory
Layer: 1
Undoes
EndUndoes
Redoes
EndRedoes
EndUndoRedoHistory
Fore
SplineSet
624 1760 m 1
 418 982 l 1
 415 982 l 1
 174 1760 l 1
 24 1760 l 1
 342 772 l 1
 342 0 l 1
 491 0 l 1
 491 773 l 1
 778 1760 l 1
 624 1760 l 1
EndSplineSet
EndChar

StartChar: Z
Encoding: 90 90 120
Width: 691
VWidth: 0
Flags: HW
LayerCount: 2
UndoRedoHistory
Layer: 1
Undoes
EndUndoes
Redoes
EndRedoes
EndUndoRedoHistory
Fore
SplineSet
121 1760 m 1
 121 1644 l 1
 451 1644 l 1
 112 125 l 1
 112 0 l 1
 597 0 l 1
 597 118 l 1
 262 118 l 1
 603 1658 l 1
 603 1760 l 1
 121 1760 l 1
EndSplineSet
EndChar

StartChar: a
Encoding: 97 97 124
Width: 874
VWidth: 0
Flags: HW
LayerCount: 2
UndoRedoHistory
Layer: 1
Undoes
EndUndoes
Redoes
EndRedoes
EndUndoRedoHistory
Fore
SplineSet
162 1051 m 2
 162 1011 l 1
 312 1011 l 1
 312 1048 l 2
 312 1293 325 1387 450 1387 c 0
 578 1387 580 1288 580 1058 c 2
 580 955.614046045 l 1
 336.258866905 850.678649178 144 782.053630695 144 569 c 2
 144 377 l 2
 144 127 224 -11 383 -11 c 0
 506 -11 568 75 580 112 c 1
 580 0 l 1
 729 0 l 1
 729 976 l 2
 729 1327 733 1518 450 1518 c 0
 171 1518 162 1292 162 1051 c 2
580 837.23836855 m 1
 580 211 l 1
 557 170 488 113 410 113 c 0
 314 113 292 190 292 390 c 2
 292 509 l 2
 292 701.949649506 331.48490756 725.678266614 580 837.23836855 c 1
EndSplineSet
EndChar

StartChar: acute
Encoding: 180 180 128
Width: 650
VWidth: 0
Flags: HW
LayerCount: 2
UndoRedoHistory
Layer: 1
Undoes
EndUndoes
Redoes
EndRedoes
EndUndoRedoHistory
Fore
SplineSet
100 1989 m 1
 100 1920 l 1
 498 2003 l 1
 498 2147 l 1
 100 1989 l 1
EndSplineSet
EndChar

StartChar: ae
Encoding: 230 230 130
Width: 1283
VWidth: 0
Flags: HW
LayerCount: 2
UndoRedoHistory
Layer: 1
Undoes
EndUndoes
Redoes
EndRedoes
EndUndoRedoHistory
Fore
SplineSet
1004 1068 m 2
 1004 874 l 1
 733 874 l 1
 733 1063 l 2
 733 1257 751 1387 881 1387 c 0
 1007 1387 1004 1273 1004 1068 c 2
584 211 m 1
 561 170 492 112 414 112 c 0
 318 112 296 189 296 390 c 2
 296 511 l 2
 296 702 336 727 584 840 c 1
 584 211 l 1
659 1427 m 1
 629 1487 570 1518 454 1518 c 0
 175 1518 166 1292 166 1051 c 2
 166 1011 l 1
 316 1011 l 1
 316 1047 l 2
 316 1291 328 1388 454 1388 c 0
 581 1388 584 1296 584 1065 c 2
 584 956 l 1
 341 849 147 781 148 566 c 1
 148 375 l 2
 148 128 219 -11 376 -11 c 0
 469 -11 583 58 630 103 c 1
 674 24 745 -18 872 -18 c 0
 1149 -18 1149 201 1149 505 c 2
 1149 556 l 1
 1004 556 l 1
 1004 439 l 2
 1004 231 997 113 875 113 c 0
 742 113 733 220 733 443 c 2
 733 754 l 1
 1154 754 l 1
 1153 1002 l 1
 1153 1292 1150 1518 881 1518 c 0
 775 1518 705 1485 659 1427 c 1
EndSplineSet
EndChar

StartChar: ampersand
Encoding: 38 38 133
Width: 915
VWidth: 0
Flags: HW
LayerCount: 2
UndoRedoHistory
Layer: 1
Undoes
EndUndoes
Redoes
EndRedoes
EndUndoRedoHistory
Fore
SplineSet
434.401620372 1056.67258557 m 1
 367.372219084 1221.23357784 322 1360.58265534 322 1441 c 0
 322 1515 306 1663 463 1663 c 0
 578 1663 594 1590 594 1452 c 0
 594 1286.72494523 523.850239727 1167.29683115 434.401620372 1056.67258557 c 1
751.422439711 365.496442029 m 1
 794.280034841 470.925129611 844.101566688 585.043394183 928 690 c 1
 859 797 l 1
 780.235769858 703.540950802 724.879187165 605.244896964 680.592984329 513.027527922 c 1
 614.98065367 650.225403364 547.984288404 792.598150291 489.931252577 925.461547947 c 1
 614.580424262 1080.9325314 734 1232.29330014 734 1434 c 0
 734 1654 691 1782 462 1782 c 0
 273 1782 176 1670 176 1443 c 0
 176 1350.40643626 247.51145303 1162.88246412 342.860223235 950.377907357 c 1
 204.288597929 794.320035395 60 631.618639899 60 353 c 0
 60 96 192 -20 364 -20 c 0
 551.189955252 -20 628.854459983 83.0215639104 693.32894622 225.637230975 c 1
 739.617088279 131.377859202 777.213132564 52.68460671 799 0 c 1
 923 0 l 1
 879.857596539 98.2399307721 818.54561779 225.929433387 751.422439711 365.496442029 c 1
618.933950384 376.052063958 m 1
 550.866470294 219.691630269 499.399412296 105 382 105 c 0
 242 105 202 220 213 374 c 0
 224.795420587 550.538128119 307.857316158 688.892266387 404.321017157 816.657540833 c 1
 474.365755862 667.36980518 550.880971222 513.197977346 618.933950384 376.052063958 c 1
EndSplineSet
EndChar

StartChar: approxequal
Encoding: 8776 8776 135
Width: 1117
VWidth: 0
Flags: HW
LayerCount: 2
UndoRedoHistory
Layer: 1
Undoes
EndUndoes
Redoes
EndRedoes
EndUndoRedoHistory
Fore
SplineSet
746 642 m 1
 682 642 450 721 346 721 c 0
 258 721 184 658 132 535 c 1
 260 460 l 1
 286 520 320 553 355 553 c 0
 461 553 659 473 773 473 c 0
 871 473 942 531 989 718 c 1
 846 760 l 1
 825 689 792 647 746 642 c 1
746 1044 m 1
 682 1044 450 1123 346 1123 c 0
 258 1123 184 1061 132 937 c 1
 260 862 l 1
 286 922 320 955 355 955 c 0
 461 955 659 875 773 875 c 0
 871 875 942 933 989 1120 c 1
 846 1162 l 1
 825 1092 792 1050 746 1044 c 1
EndSplineSet
EndChar

StartChar: asciicircum
Encoding: 94 94 137
Width: 1030
VWidth: 0
Flags: HW
LayerCount: 2
UndoRedoHistory
Layer: 1
Undoes
EndUndoes
Redoes
EndRedoes
EndUndoRedoHistory
Fore
SplineSet
411 1500 m 1
 170 577 l 1
 321 577 l 1
 515 1388 l 1
 709 577 l 1
 858 577 l 1
 617 1500 l 1
 411 1500 l 1
EndSplineSet
EndChar

StartChar: asciitilde
Encoding: 126 126 138
Width: 1117
VWidth: 0
Flags: HW
LayerCount: 2
UndoRedoHistory
Layer: 1
Undoes
EndUndoes
Redoes
EndRedoes
EndUndoRedoHistory
Fore
SplineSet
735 1022 m 1
 671 1022 439 1101 335 1101 c 0
 247 1101 173 1039 121 915 c 1
 249 840 l 1
 275 901 311 933 344 933 c 0
 450 933 648 853 762 853 c 0
 860 853 931 911 978 1098 c 1
 835 1140 l 1
 814 1070 781 1028 735 1022 c 1
EndSplineSet
EndChar

StartChar: asterisk
Encoding: 42 42 139
Width: 960
VWidth: 0
Flags: HW
LayerCount: 2
UndoRedoHistory
Layer: 1
Undoes
EndUndoes
Redoes
EndRedoes
EndUndoRedoHistory
Fore
SplineSet
414 1777 m 1
 438 1508 l 1
 209 1671 l 1
 141 1555 l 1
 391 1433 l 1
 149 1303 l 1
 216 1185 l 1
 438 1357 l 1
 414 1081 l 1
 547 1081 l 1
 527 1353 l 1
 751 1176 l 1
 819 1293 l 1
 569 1433 l 1
 819 1565 l 1
 751 1681 l 1
 527 1509 l 1
 547 1777 l 1
 414 1777 l 1
EndSplineSet
EndChar

StartChar: at
Encoding: 64 64 140
Width: 1325
VWidth: 0
Flags: HW
LayerCount: 2
UndoRedoHistory
Layer: 1
Undoes
EndUndoes
Redoes
EndRedoes
EndUndoRedoHistory
Fore
SplineSet
847 759 m 2
 847 591 768 473 667 473 c 0
 554 473 482 553 482 816 c 0
 482 1088 560 1195 653 1195 c 0
 718 1195 789 1144 847 1062 c 1
 847 759 l 2
91 836 m 0
 91 255 274 -53 648 -53 c 0
 717 -53 774 -43 866 -24 c 1
 849 88 l 1
 774 66 706 60 651 60 c 0
 362 60 217 258 217 833 c 0
 217 1315 325 1662 705 1662 c 0
 1091 1662 1122 1286 1122 942 c 0
 1122 634 1099 494 1029 494 c 0
 974 494 957 563 957 689 c 2
 957 1258 l 1
 885 1258 l 1
 855 1136 l 1
 826 1203 746 1283 624 1283 c 0
 459 1283 375 1090 375 810 c 0
 375 468 524 361 667 361 c 0
 764 361 851 455 874 585 c 1
 889 498 948 378 1028 378 c 0
 1182 378 1241 616 1241 910 c 0
 1241 1422 1103 1781 718 1781 c 0
 240 1781 91 1385 91 836 c 0
EndSplineSet
EndChar

StartChar: b
Encoding: 98 98 142
Width: 874
VWidth: 0
Flags: HW
LayerCount: 2
UndoRedoHistory
Layer: 1
Undoes
EndUndoes
Redoes
EndRedoes
EndUndoRedoHistory
Fore
SplineSet
597 1061 m 2
 597 466 l 2
 597 214 569 116 460 115 c 1
 335 115 309 221 309 460 c 2
 309 1059 l 2
 309 1352 371 1386 467 1386 c 0
 585 1386 597 1258 597 1061 c 2
160 1783 m 1
 160 0 l 1
 309 0 l 1
 309 114 l 1
 350 19 433 -11 510 -11 c 0
 717 -11 746 204 746 490 c 2
 746 1012 l 2
 746 1297 708 1528 480 1518 c 0
 407 1515 324 1455 309 1372 c 1
 309 1783 l 1
 160 1783 l 1
EndSplineSet
EndChar

StartChar: backslash
Encoding: 92 92 143
Width: 868
VWidth: 0
Flags: HW
LayerCount: 2
UndoRedoHistory
Layer: 1
Undoes
EndUndoes
Redoes
EndRedoes
EndUndoRedoHistory
Fore
SplineSet
133 1761 m 1
 544 0 l 1
 671 0 l 1
 261 1761 l 1
 133 1761 l 1
EndSplineSet
EndChar

StartChar: bar
Encoding: 124 124 144
Width: 537
VWidth: 0
Flags: HW
LayerCount: 2
UndoRedoHistory
Layer: 1
Undoes
EndUndoes
Redoes
EndRedoes
EndUndoRedoHistory
Fore
SplineSet
199 1683 m 1
 199 -84 l 1
 352 -84 l 1
 352 1683 l 1
 199 1683 l 1
EndSplineSet
EndChar

StartChar: braceleft
Encoding: 123 123 145
Width: 798
VWidth: 0
Flags: HW
LayerCount: 2
UndoRedoHistory
Layer: 1
Undoes
EndUndoes
Redoes
EndRedoes
EndUndoRedoHistory
Fore
SplineSet
562 1781 m 2
 383 1781 334 1704 334 1443 c 2
 334 1168 l 2
 334 954 317 931 195 931 c 1
 195 729 l 1
 317 729 334 706 334 492 c 2
 334 217 l 2
 334 -44 383 -121 562 -121 c 2
 622 -121 l 1
 622 16 l 1
 498 16 483 38 483 230 c 2
 483 476 l 2
 483 748 465 784 311 830 c 1
 465 876 483 912 483 1184 c 2
 483 1430 l 2
 483 1622 498 1644 622 1644 c 1
 622 1781 l 1
 562 1781 l 2
EndSplineSet
EndChar

StartChar: braceright
Encoding: 125 125 146
Width: 798
VWidth: 0
Flags: HW
LayerCount: 2
UndoRedoHistory
Layer: 1
Undoes
EndUndoes
Redoes
EndRedoes
EndUndoRedoHistory
Fore
SplineSet
195 1781 m 1
 195 1644 l 1
 318 1644 334 1622 334 1430 c 2
 334 1184 l 2
 334 912 352 876 506 830 c 1
 352 784 334 748 334 476 c 2
 334 230 l 2
 334 38 318 16 195 16 c 1
 195 -121 l 1
 255 -121 l 2
 434 -121 483 -44 483 217 c 2
 483 492 l 2
 483 706 500 729 622 729 c 1
 622 931 l 1
 500 931 483 954 483 1168 c 2
 483 1443 l 2
 483 1704 434 1781 255 1781 c 2
 195 1781 l 1
EndSplineSet
EndChar

StartChar: bracketleft
Encoding: 91 91 147
Width: 764
VWidth: 0
Flags: HW
LayerCount: 2
UndoRedoHistory
Layer: 1
Undoes
EndUndoes
Redoes
EndRedoes
EndUndoRedoHistory
Fore
SplineSet
253 1761 m 1
 253 0 l 1
 616 0 l 1
 616 115 l 1
 402 115 l 1
 402 1646 l 1
 616 1646 l 1
 616 1761 l 1
 253 1761 l 1
EndSplineSet
EndChar

StartChar: bracketright
Encoding: 93 93 148
Width: 764
VWidth: 0
Flags: HW
LayerCount: 2
UndoRedoHistory
Layer: 1
Undoes
EndUndoes
Redoes
EndRedoes
EndUndoRedoHistory
Fore
SplineSet
196 1761 m 1
 196 1646 l 1
 409 1646 l 1
 409 115 l 1
 196 115 l 1
 196 0 l 1
 558 0 l 1
 558 1761 l 1
 196 1761 l 1
EndSplineSet
EndChar

StartChar: breve
Encoding: 728 728 149
Width: 1016
VWidth: 0
Flags: HW
LayerCount: 2
UndoRedoHistory
Layer: 1
Undoes
EndUndoes
Redoes
EndRedoes
EndUndoRedoHistory
Fore
SplineSet
632 1823 m 1
 632 1728 565 1710 507 1710 c 0
 446 1710 379 1732 379 1823 c 1
 315 1823 l 1
 315 1808 l 2
 315 1692 381 1619 505 1619 c 0
 635 1619 696 1697 696 1810 c 2
 696 1823 l 1
 632 1823 l 1
EndSplineSet
EndChar

StartChar: brokenbar
Encoding: 166 166 150
Width: 530
VWidth: 0
Flags: HW
LayerCount: 2
UndoRedoHistory
Layer: 1
Undoes
EndUndoes
Redoes
EndRedoes
EndUndoRedoHistory
Fore
SplineSet
122 724 m 1
 122 -84 l 1
 275 -84 l 1
 275 724 l 1
 122 724 l 1
122 1761 m 1
 122 931 l 1
 275 931 l 1
 275 1761 l 1
 122 1761 l 1
EndSplineSet
EndChar

StartChar: bullet
Encoding: 8226 8226 151
Width: 861
VWidth: 0
Flags: HW
LayerCount: 2
UndoRedoHistory
Layer: 1
Undoes
EndUndoes
Redoes
EndRedoes
EndUndoRedoHistory
Fore
SplineSet
227 741 m 0
 227 590 296 513 430 513 c 0
 565 513 634 590 634 741 c 0
 634 892 565 969 430 969 c 0
 296 969 227 892 227 741 c 0
EndSplineSet
EndChar

StartChar: c
Encoding: 99 99 152
Width: 791
VWidth: 0
Flags: HW
LayerCount: 2
UndoRedoHistory
Layer: 1
Undoes
EndUndoes
Redoes
EndRedoes
EndUndoRedoHistory
Fore
SplineSet
128 1028 m 2
 128 511 l 2
 128 202 145 -18 418 -18 c 0
 702 -18 700 205 700 517 c 2
 700 562 l 1
 549 562 l 1
 549 449 l 2
 549 239 544 119 419 119 c 0
 287 119 277 222 277 455 c 2
 277 1057 l 2
 277 1254 292 1381 426 1381 c 0
 550 1381 549 1274 549 1065 c 2
 549 973 l 1
 700 973 l 1
 700 1020 l 2
 700 1314 698 1518 425 1518 c 0
 163 1518 128 1300 128 1028 c 2
EndSplineSet
EndChar

StartChar: caron
Encoding: 711 711 154
Width: 970
VWidth: 0
Flags: HW
LayerCount: 2
UndoRedoHistory
Layer: 1
Undoes
EndUndoes
Redoes
EndRedoes
EndUndoRedoHistory
Fore
SplineSet
571 1830 m 1
 485 1655 l 1
 399 1830 l 1
 281 1830 l 1
 402 1577 l 1
 568 1577 l 1
 688 1830 l 1
 571 1830 l 1
EndSplineSet
EndChar

StartChar: cedilla
Encoding: 184 184 159
Width: 1015
VWidth: 0
Flags: HW
LayerCount: 2
UndoRedoHistory
Layer: 1
Undoes
EndUndoes
Redoes
EndRedoes
EndUndoRedoHistory
Fore
SplineSet
494 0 m 1
 454 -196 l 1
 536 -214 614 -269 614 -359 c 0
 614 -434 572 -501 383 -501 c 1
 383 -587 l 1
 414 -593 442 -596 470 -596 c 0
 626 -596 739 -492 739 -376 c 0
 739 -297 688 -211 560 -147 c 1
 551 0 l 1
 494 0 l 1
EndSplineSet
EndChar

StartChar: cent
Encoding: 162 162 160
Width: 788
VWidth: 0
Flags: HW
LayerCount: 2
UndoRedoHistory
Layer: 1
Undoes
EndUndoes
Redoes
EndRedoes
EndUndoRedoHistory
Fore
SplineSet
335 6 m 1
 335 -249 l 1
 448 -249 l 1
 448 6 l 1
 335 6 l 1
335 1768 m 1
 335 1513 l 1
 448 1511 l 1
 448 1768 l 1
 335 1768 l 1
EndSplineSet
Refer: 152 99 N 1 0 0 1 0 0 2
EndChar

StartChar: circumflex
Encoding: 710 710 161
Width: 970
VWidth: 0
Flags: HW
LayerCount: 2
UndoRedoHistory
Layer: 1
Undoes
EndUndoes
Redoes
EndRedoes
EndUndoRedoHistory
Fore
SplineSet
402 1831 m 1
 281 1577 l 1
 399 1577 l 1
 485 1752 l 1
 571 1577 l 1
 688 1577 l 1
 568 1831 l 1
 402 1831 l 1
EndSplineSet
EndChar

StartChar: colon
Encoding: 58 58 162
Width: 555
VWidth: 0
Flags: HW
LayerCount: 2
UndoRedoHistory
Layer: 1
Undoes
EndUndoes
Redoes
EndRedoes
EndUndoRedoHistory
Fore
SplineSet
179 1279 m 1
 179 1048 l 1
 362 1048 l 1
 362 1279 l 1
 179 1279 l 1
179 543 m 1
 179 312 l 1
 362 312 l 1
 362 543 l 1
 179 543 l 1
EndSplineSet
EndChar

StartChar: comma
Encoding: 44 44 163
Width: 437
VWidth: 0
Flags: HW
LayerCount: 2
UndoRedoHistory
Layer: 1
Undoes
EndUndoes
Redoes
EndRedoes
EndUndoRedoHistory
Fore
SplineSet
151 173 m 1
 151 0 l 1
 266 0 l 1
 170 -350 l 1
 247 -350 l 1
 351 9 l 1
 351 173 l 1
 151 173 l 1
EndSplineSet
EndChar

StartChar: commaaccentcomb
Encoding: 806 806 164
Width: 528
VWidth: 0
Flags: HW
LayerCount: 2
UndoRedoHistory
Layer: 1
Undoes
EndUndoes
Redoes
EndRedoes
EndUndoRedoHistory
Fore
SplineSet
168 242 m 1
 168 50 l 1
 268 50 l 1
 225 -223 l 1
 287 -223 l 1
 365 59 l 1
 365 242 l 1
 168 242 l 1
EndSplineSet
EndChar

StartChar: copyright
Encoding: 169 169 165
Width: 1466
VWidth: 0
Flags: HW
LayerCount: 2
UndoRedoHistory
Layer: 1
Undoes
EndUndoes
Redoes
EndRedoes
EndUndoRedoHistory
Fore
SplineSet
1309 862 m 0
 1309 533 1059 271 733 271 c 0
 407 271 157 533 157 862 c 0
 157 1191 407 1453 733 1453 c 0
 1059 1453 1309 1191 1309 862 c 0
509 1049 m 2
 509 648 l 2
 509 492 597 424 736 424 c 0
 898 424 951 493 951 639 c 2
 951 762 l 1
 850 762 l 1
 850 653 l 2
 850 550 825 508 734 508 c 0
 646 508 616 563 616 653 c 2
 616 1070 l 2
 616 1158 637 1214 734 1214 c 0
 825 1214 850 1168 850 1057 c 2
 850 976 l 1
 947 976 l 1
 947 1109 l 2
 947 1233 874 1305 740 1305 c 0
 575 1305 509 1217 509 1049 c 2
76 862 m 0
 76 489 360 205 733 205 c 0
 1106 205 1390 489 1390 862 c 0
 1390 1235 1106 1519 733 1519 c 0
 360 1519 76 1235 76 862 c 0
EndSplineSet
EndChar

StartChar: currency
Encoding: 164 164 166
Width: 1159
VWidth: 0
Flags: HW
LayerCount: 2
UndoRedoHistory
Layer: 1
Undoes
EndUndoes
Redoes
EndRedoes
EndUndoRedoHistory
Fore
SplineSet
876 1269 m 0
 876 1094 760 951 579 951 c 0
 398 951 283 1092 283 1267 c 0
 283 1441 399 1582 579 1582 c 0
 762 1582 876 1449 876 1269 c 0
797 1634 m 1
 732 1670 659 1688 579 1688 c 0
 498 1688 426 1670 361 1633 c 1
 274 1721 l 1
 125 1571 l 1
 215 1481 l 1
 180 1416 163 1345 163 1267 c 0
 163 1190 181 1118 216 1053 c 1
 125 962 l 1
 274 812 l 1
 363 901 l 1
 424 866 496 848 579 848 c 0
 661 848 733 865 795 900 c 1
 884 812 l 1
 1034 961 l 1
 944 1051 l 1
 980 1116 998 1188 998 1267 c 0
 998 1346 980 1417 944 1482 c 1
 1034 1572 l 1
 884 1721 l 1
 797 1634 l 1
EndSplineSet
EndChar

StartChar: d
Encoding: 100 100 167
Width: 870
VWidth: 0
Flags: HW
LayerCount: 2
UndoRedoHistory
Layer: 1
Undoes
EndUndoes
Redoes
EndRedoes
EndUndoRedoHistory
Fore
SplineSet
565 1037 m 2
 565 434 l 2
 565 142 503 114 409 114 c 0
 290 114 278 243 278 436 c 2
 278 1030 l 2
 278 1285 307 1384 416 1385 c 1
 542 1385 565 1279 565 1037 c 2
564 1783 m 1
 564 1393 l 1
 538 1459 476 1518 405 1518 c 0
 172 1518 128 1298 128 1008 c 2
 128 481 l 2
 128 200 163 -11 365 -11 c 0
 439 -11 523 18 564 114 c 1
 564 0 l 1
 714 0 l 1
 714 1783 l 1
 564 1783 l 1
EndSplineSet
EndChar

StartChar: dagger
Encoding: 8224 8224 168
Width: 909
VWidth: 0
Flags: HW
LayerCount: 2
UndoRedoHistory
Layer: 1
Undoes
EndUndoes
Redoes
EndRedoes
EndUndoRedoHistory
Fore
SplineSet
382 1592 m 1
 382 1182 l 1
 91 1182 l 1
 91 1066 l 1
 382 1066 l 1
 382 0 l 1
 530 0 l 1
 530 1066 l 1
 818 1066 l 1
 818 1182 l 1
 530 1182 l 1
 530 1592 l 1
 382 1592 l 1
EndSplineSet
EndChar

StartChar: daggerdbl
Encoding: 8225 8225 169
Width: 927
VWidth: 0
Flags: HW
LayerCount: 2
UndoRedoHistory
Layer: 1
Undoes
EndUndoes
Redoes
EndRedoes
EndUndoRedoHistory
Fore
SplineSet
818 1066 m 1
 818 1182 l 1
 530 1182 l 1
 530 1592 l 1
 382 1592 l 1
 382 1182 l 1
 91 1182 l 1
 91 1066 l 1
 382 1066 l 1
 382 612 l 1
 91 612 l 1
 91 496 l 1
 382 496 l 1
 382 0 l 1
 530 0 l 1
 530 496 l 1
 818 496 l 1
 818 612 l 1
 530 612 l 1
 530 1066 l 1
 818 1066 l 1
EndSplineSet
EndChar

StartChar: dblgravecmb
Encoding: 783 783 170
Width: 825
VWidth: 0
Flags: HW
LayerCount: 2
UndoRedoHistory
Layer: 1
Undoes
EndUndoes
Redoes
EndRedoes
EndUndoRedoHistory
Fore
SplineSet
312 1912 m 1
 527 1637 l 1
 594 1684 l 1
 443 2009 l 1
 312 1912 l 1
9 1912 m 1
 265 1637 l 1
 332 1684 l 1
 144 2009 l 1
 9 1912 l 1
EndSplineSet
EndChar

StartChar: degree
Encoding: 176 176 173
Width: 915
VWidth: 0
Flags: HW
LayerCount: 2
UndoRedoHistory
Layer: 1
Undoes
EndUndoes
Redoes
EndRedoes
EndUndoRedoHistory
Fore
SplineSet
600 1269 m 0
 600 1182 547 1112 458 1112 c 0
 369 1112 316 1182 316 1269 c 0
 316 1356 369 1426 458 1426 c 0
 547 1426 600 1356 600 1269 c 0
104 1269 m 0
 104 1057 243 931 457 931 c 0
 671 931 811 1058 811 1269 c 0
 811 1480 671 1607 457 1607 c 0
 243 1607 104 1480 104 1269 c 0
EndSplineSet
EndChar

StartChar: dieresis
Encoding: 168 168 174
Width: 976
VWidth: 0
Flags: HW
LayerCount: 2
UndoRedoHistory
Layer: 1
Undoes
EndUndoes
Redoes
EndRedoes
EndUndoRedoHistory
Fore
SplineSet
155 95 m 1
 155 -38 l 1
 337 -38 l 1
 337 95 l 1
 155 95 l 1
585 95 m 1
 585 -38 l 1
 767 -38 l 1
 767 95 l 1
 585 95 l 1
EndSplineSet
EndChar

StartChar: divide
Encoding: 247 247 175
Width: 804
VWidth: 0
Flags: HW
LayerCount: 2
UndoRedoHistory
Layer: 1
Undoes
EndUndoes
Redoes
EndRedoes
EndUndoRedoHistory
Fore
SplineSet
303 1174 m 1
 303 976 l 1
 501 976 l 1
 501 1174 l 1
 303 1174 l 1
303 535 m 1
 303 327 l 1
 501 327 l 1
 501 535 l 1
 303 535 l 1
94 823 m 1
 94 708 l 1
 710 708 l 1
 710 823 l 1
 94 823 l 1
EndSplineSet
EndChar

StartChar: dollar
Encoding: 36 36 176
Width: 860
VWidth: 0
Flags: HW
LayerCount: 2
UndoRedoHistory
Layer: 1
Undoes
EndUndoes
Redoes
EndRedoes
EndUndoRedoHistory
Fore
SplineSet
348 17 m 1
 348 -271 l 1
 455 -271 l 1
 455 17 l 1
 348 17 l 1
327 1760 m 1
 327 1468 l 1
 434 1468 l 1
 434 1760 l 1
 327 1760 l 1
EndSplineSet
Refer: 307 115 N 1 0 0 1 0 -2 2
EndChar

StartChar: dotaccent
Encoding: 729 729 177
Width: 572
VWidth: 0
Flags: HW
LayerCount: 2
UndoRedoHistory
Layer: 1
Undoes
EndUndoes
Redoes
EndRedoes
EndUndoRedoHistory
Fore
SplineSet
213 78 m 1
 213 -55 l 1
 372 -55 l 1
 372 78 l 1
 213 78 l 1
EndSplineSet
EndChar

StartChar: dotlessi
Encoding: 305 305 178
Width: 474
VWidth: 0
Flags: HW
LayerCount: 2
UndoRedoHistory
Layer: 1
Undoes
EndUndoes
Redoes
EndRedoes
EndUndoRedoHistory
Fore
SplineSet
162 1500 m 1
 162 0 l 1
 312 0 l 1
 312 1500 l 1
 162 1500 l 1
EndSplineSet
EndChar

StartChar: e
Encoding: 101 101 179
Width: 808
VWidth: 0
Flags: HW
LayerCount: 2
UndoRedoHistory
Layer: 1
Undoes
EndUndoes
Redoes
EndRedoes
EndUndoRedoHistory
Fore
SplineSet
549 1068 m 2
 549 877 l 1
 277 877 l 1
 277 1060 l 2
 277 1257 295 1387 426 1387 c 0
 551 1387 549 1273 549 1068 c 2
128 1014 m 2
 128 511 l 2
 128 201 146 -18 421 -18 c 0
 696 -18 694 204 694 507 c 2
 694 556 l 1
 549 556 l 1
 549 444 l 2
 549 236 542 113 419 113 c 0
 289 113 277 220 277 450 c 2
 277 752 l 1
 698 752 l 1
 698 1002 l 2
 698 1292 695 1518 425 1518 c 0
 156 1518 128 1296 128 1014 c 2
EndSplineSet
EndChar

StartChar: eight
Encoding: 56 56 187
Width: 746
VWidth: 0
Flags: HW
LayerCount: 2
UndoRedoHistory
Layer: 1
Undoes
EndUndoes
Redoes
EndRedoes
EndUndoRedoHistory
Fore
SplineSet
529 1353 m 0
 529 1093 485 982 382 982 c 0
 281 982 238 1092 238 1348 c 0
 238 1562 281 1653 382 1653 c 0
 485 1653 529 1563 529 1353 c 0
384 869 m 0
 488.195826361 869 533.315114335 739.998920611 534 439 c 1
 533 204 488 103 384 103 c 0
 271.49253598 103 222.399538453 200.147551656 220 428 c 1
 220 737 269 869 384 869 c 0
89 1347 m 0
 89 1121 130 995 226 927 c 1
 117 853 71 705 71 434 c 0
 71 417 72 420 72 403 c 0
 81 107 174 -20 382 -20 c 0
 585 -20 675 110 682 413 c 0
 682 426 682 420 682 434 c 0
 682 706 637 855 532 931 c 1
 634 1001 678 1126 678 1347 c 0
 678 1650 590 1780 385 1780 c 0
 178 1780 89 1650 89 1347 c 0
EndSplineSet
EndChar

StartChar: emdash
Encoding: 8212 8212 189
Width: 1153
VWidth: 0
Flags: HW
LayerCount: 2
UndoRedoHistory
Layer: 1
Undoes
EndUndoes
Redoes
EndRedoes
EndUndoRedoHistory
Fore
SplineSet
100 741 m 1
 100 626 l 1
 1052 626 l 1
 1052 741 l 1
 100 741 l 1
EndSplineSet
EndChar

StartChar: endash
Encoding: 8211 8211 190
Width: 756
VWidth: 0
Flags: HW
LayerCount: 2
UndoRedoHistory
Layer: 1
Undoes
EndUndoes
Redoes
EndRedoes
EndUndoRedoHistory
Fore
SplineSet
120 741 m 1
 120 626 l 1
 636 626 l 1
 636 741 l 1
 120 741 l 1
EndSplineSet
EndChar

StartChar: equal
Encoding: 61 61 192
Width: 722
VWidth: 0
Flags: HW
LayerCount: 2
UndoRedoHistory
Layer: 1
Undoes
EndUndoes
Redoes
EndRedoes
EndUndoRedoHistory
Fore
SplineSet
104 733 m 1
 104 601 l 1
 618 601 l 1
 618 733 l 1
 104 733 l 1
104 1025 m 1
 104 892 l 1
 618 892 l 1
 618 1025 l 1
 104 1025 l 1
EndSplineSet
EndChar

StartChar: eth
Encoding: 240 240 193
Width: 926
VWidth: 0
Flags: HW
LayerCount: 2
UndoRedoHistory
Layer: 1
Undoes
EndUndoes
Redoes
EndRedoes
EndUndoRedoHistory
Fore
SplineSet
616 926 m 1
 616 505 l 2
 616 227 583 107 433 107 c 0
 299 107 262 170 262 446 c 2
 262 545 l 2
 262 869 291 978 427 978 c 0
 521 978 597 930 616 926 c 1
295 1640 m 1
 371 1644 473 1619 545 1534 c 1
 320 1399 l 1
 373 1299 l 1
 598 1434 l 1
 610 1392 618 1009 618 1009 c 1
 575 1070 494 1101 435 1103 c 0
 183 1114 113 959 113 557 c 2
 113 442 l 2
 113 145 179 -20 433 -20 c 0
 706 -20 765 212 765 506 c 2
 765 958 l 2
 765 926 755 1456 734 1516 c 1
 933 1635 l 1
 880 1735 l 1
 680 1616 l 1
 591 1732 452 1783 295 1780 c 1
 295 1640 l 1
EndSplineSet
EndChar

StartChar: exclam
Encoding: 33 33 194
Width: 540
VWidth: 0
Flags: HW
LayerCount: 2
UndoRedoHistory
Layer: 1
Undoes
EndUndoes
Redoes
EndRedoes
EndUndoRedoHistory
Fore
SplineSet
175 202 m 1
 175 0 l 1
 361 0 l 1
 361 202 l 1
 175 202 l 1
176 1760 m 1
 239 368 l 1
 299 368 l 1
 364 1760 l 1
 176 1760 l 1
EndSplineSet
EndChar

StartChar: f
Encoding: 102 102 196
Width: 610
VWidth: 0
Flags: HW
LayerCount: 2
UndoRedoHistory
Layer: 1
Undoes
EndUndoes
Redoes
EndRedoes
EndUndoRedoHistory
Fore
SplineSet
224 1512 m 2
 224 1442 l 1
 84 1442 l 1
 84 1329 l 1
 224 1329 l 1
 224 0 l 1
 374 0 l 1
 374 1329 l 1
 573 1329 l 1
 573 1442 l 1
 374 1442 l 1
 374 1534 l 2
 374 1606 381 1657 492 1657 c 0
 514 1657 541 1655 573 1650 c 1
 573 1770.98683972 l 1
 570.175554927 1771.73406291 510.448912182 1789 438 1789 c 0
 277 1789 224 1688 224 1512 c 2
573 1770.98683972 m 1
 573 1771 l 2
 573.140174519 1770.95327516 573 1770.98683972 573 1770.98683972 c 1
EndSplineSet
EndChar

StartChar: five
Encoding: 53 53 197
Width: 746
VWidth: 0
Flags: HW
LayerCount: 2
UndoRedoHistory
Layer: 1
Undoes
EndUndoes
Redoes
EndRedoes
EndUndoRedoHistory
Fore
SplineSet
135 1760 m 1
 135 910 l 1
 259 888 l 1
 259 1028 313 1091 380 1091 c 0
 463 1091 492 1021 492 869 c 2
 492 274 l 2
 492 158 454 102 378 102 c 0
 293 102 263 171 263 263 c 2
 263 459 l 1
 111 459 l 1
 111 291 l 2
 111 141 156 -20 377 -20 c 0
 574 -20 633 80 633 477 c 2
 633 768 l 2
 633 1149 543 1221 400 1221 c 0
 347 1221 289 1183 270 1146 c 1
 270 1624 l 1
 595 1624 l 1
 595 1760 l 1
 135 1760 l 1
EndSplineSet
EndChar

StartChar: florin
Encoding: 402 402 198
Width: 767
VWidth: 0
Flags: HW
LayerCount: 2
UndoRedoHistory
Layer: 1
Undoes
EndUndoes
Redoes
EndRedoes
EndUndoRedoHistory
Fore
SplineSet
316 1539 m 2
 316 1252 l 1
 107 1252 l 1
 107 1146 l 1
 316 1146 l 1
 316 305 l 2
 316 160 297 128 170 128 c 0
 154 128 135 129 115 130 c 1
 115 8 l 1
 170 -6 215 -12 252 -12 c 0
 390 -12 453 68 453 221 c 2
 453 1146 l 1
 667 1146 l 1
 667 1252 l 1
 453 1252 l 1
 453 1521 l 2
 453 1614 475 1654 538 1654 c 0
 566 1654 604 1645 652 1630 c 1
 652 1752 l 1
 590 1775 537 1787 496 1787 c 0
 378 1787 316 1703 316 1539 c 2
EndSplineSet
EndChar

StartChar: four
Encoding: 52 52 199
Width: 746
VWidth: 0
Flags: HW
LayerCount: 2
UndoRedoHistory
Layer: 1
Undoes
EndUndoes
Redoes
EndRedoes
EndUndoRedoHistory
Fore
SplineSet
449 468 m 1
 186 468 l 1
 449 1428 l 1
 449 468 l 1
445 1761 m 1
 51 449 l 1
 51 352 l 1
 449 352 l 1
 449 -1 l 1
 589 -1 l 1
 589 352 l 1
 743 352 l 1
 743 468 l 1
 589 468 l 1
 589 1761 l 1
 445 1761 l 1
EndSplineSet
EndChar

StartChar: fraction
Encoding: 8260 8260 200
Width: 829
VWidth: 0
Flags: HW
LayerCount: 2
UndoRedoHistory
Layer: 1
Undoes
EndUndoes
Redoes
EndRedoes
EndUndoRedoHistory
Fore
SplineSet
536 1768 m 1
 94 0 l 1
 231 0 l 1
 673 1768 l 1
 536 1768 l 1
EndSplineSet
EndChar

StartChar: g
Encoding: 103 103 201
Width: 860
VWidth: 0
Flags: HW
LayerCount: 2
UndoRedoHistory
Layer: 1
Undoes
EndUndoes
Redoes
EndRedoes
EndUndoRedoHistory
Fore
SplineSet
563 1050 m 2
 563 614 l 2
 563 314 523 255 434 255 c 0
 307 255 275 364 275 611 c 2
 275 1052 l 2
 275 1251 289 1387 422 1387 c 0
 544 1387 563 1280 563 1050 c 2
126 1013 m 2
 126 632 l 2
 126 345 170 127 379 127 c 0
 453 127 520 148 563 245 c 1
 563 80 l 2
 563 -33 509 -101 425 -105 c 1
 312 -109 237 -68 189 -32 c 1
 132 -147 l 1
 197 -197 311 -238 421 -232 c 0
 671 -220 712 -11 712 97 c 2
 712 1500 l 1
 563 1500 l 1
 563 1412 l 1
 534 1489 471 1517 404 1518 c 0
 201 1522 126 1299 126 1013 c 2
EndSplineSet
EndChar

StartChar: germandbls
Encoding: 223 223 206
Width: 933
VWidth: 0
Flags: HW
LayerCount: 2
UndoRedoHistory
Layer: 1
Undoes
EndUndoes
Redoes
EndRedoes
EndUndoRedoHistory
Fore
SplineSet
153 1417 m 2
 153 0 l 1
 300 0 l 1
 300 1500 l 2
 300 1646 339 1687 453 1687 c 0
 589 1687 628 1646 628 1500 c 2
 628 1170 l 2
 628 1042 574 1007 423 1007 c 1
 423 869 l 1
 624 869 683 821 683 656 c 2
 683 395 l 2
 683 155 656 127 414 127 c 1
 414 0 l 1
 518 0 l 2
 818 0 831 177 831 476 c 2
 831 553 l 2
 831 819 778 903 602 945 c 1
 733 988 771 1047 771 1220 c 2
 771 1417 l 2
 771 1700 708 1781 440 1781 c 0
 157 1781 153 1660 153 1417 c 2
EndSplineSet
EndChar

StartChar: grave
Encoding: 96 96 207
Width: 650
VWidth: 0
Flags: HW
LayerCount: 2
UndoRedoHistory
Layer: 1
Undoes
EndUndoes
Redoes
EndRedoes
EndUndoRedoHistory
Fore
SplineSet
136 14 m 1
 468 -80 l 1
 468 -11 l 1
 136 174 l 1
 136 14 l 1
EndSplineSet
EndChar

StartChar: greater
Encoding: 62 62 208
Width: 730
VWidth: 0
Flags: HW
LayerCount: 2
UndoRedoHistory
Layer: 1
Undoes
EndUndoes
Redoes
EndRedoes
EndUndoRedoHistory
Fore
SplineSet
84 1059 m 1
 552 749 l 1
 84 456 l 1
 84 288 l 1
 663 684 l 1
 663 818 l 1
 84 1219 l 1
 84 1059 l 1
EndSplineSet
EndChar

StartChar: greaterequal
Encoding: 8805 8805 209
Width: 781
VWidth: 0
Flags: HW
LayerCount: 2
UndoRedoHistory
Layer: 1
Undoes
EndUndoes
Redoes
EndRedoes
EndUndoRedoHistory
Fore
SplineSet
92 111 m 1
 92 0 l 1
 641 0 l 1
 641 111 l 1
 92 111 l 1
100 1042 m 1
 567 749 l 1
 100 439 l 1
 100 279 l 1
 679 679 l 1
 679 813 l 1
 100 1209 l 1
 100 1042 l 1
EndSplineSet
EndChar

StartChar: guillemotleft
Encoding: 171 171 210
Width: 1304
VWidth: 0
Flags: HW
LayerCount: 2
UndoRedoHistory
Layer: 1
Undoes
EndUndoes
Redoes
EndRedoes
EndUndoRedoHistory
Fore
SplineSet
76 794 m 1
 76 699 l 1
 542 414 l 1
 542 574 l 1
 230 749 l 1
 542 915 l 1
 542 1065 l 1
 76 794 l 1
599 794 m 1
 599 699 l 1
 1065 414 l 1
 1065 574 l 1
 753 749 l 1
 1065 915 l 1
 1065 1065 l 1
 599 794 l 1
EndSplineSet
EndChar

StartChar: guillemotright
Encoding: 187 187 211
Width: 1304
VWidth: 0
Flags: HW
LayerCount: 2
UndoRedoHistory
Layer: 1
Undoes
EndUndoes
Redoes
EndRedoes
EndUndoRedoHistory
Fore
SplineSet
193 915 m 1
 505 749 l 1
 193 574 l 1
 193 414 l 1
 659 699 l 1
 659 794 l 1
 193 1065 l 1
 193 915 l 1
716 915 m 1
 1028 749 l 1
 716 574 l 1
 716 414 l 1
 1182 699 l 1
 1182 794 l 1
 716 1065 l 1
 716 915 l 1
EndSplineSet
EndChar

StartChar: guilsinglleft
Encoding: 8249 8249 212
Width: 606
VWidth: 0
Flags: HW
LayerCount: 2
UndoRedoHistory
Layer: 1
Undoes
EndUndoes
Redoes
EndRedoes
EndUndoRedoHistory
Fore
SplineSet
82 794 m 1
 82 699 l 1
 548 414 l 1
 548 574 l 1
 236 749 l 1
 548 915 l 1
 548 1065 l 1
 82 794 l 1
EndSplineSet
EndChar

StartChar: guilsinglright
Encoding: 8250 8250 213
Width: 727
VWidth: 0
Flags: HW
LayerCount: 2
UndoRedoHistory
Layer: 1
Undoes
EndUndoes
Redoes
EndRedoes
EndUndoRedoHistory
Fore
SplineSet
166 915 m 1
 478 749 l 1
 166 574 l 1
 166 414 l 1
 632 699 l 1
 632 794 l 1
 166 1065 l 1
 166 915 l 1
EndSplineSet
EndChar

StartChar: h
Encoding: 104 104 214
Width: 923
VWidth: 0
Flags: HW
LayerCount: 2
UndoRedoHistory
Layer: 1
Undoes
EndUndoes
Redoes
EndRedoes
EndUndoRedoHistory
Fore
SplineSet
160 1783 m 1
 160 0 l 1
 309 0 l 1
 309 1191 l 2
 309 1340 402 1381 485 1381 c 0
 565 1381 623 1346 623 1201 c 2
 623 0 l 1
 773 0 l 1
 773 1211 l 2
 773 1425 681 1519 553 1519 c 0
 436 1519 335 1438 309 1353 c 1
 309 1783 l 1
 160 1783 l 1
EndSplineSet
EndChar

StartChar: hbar
Encoding: 295 295 215
Width: 924
VWidth: 0
Flags: HW
LayerCount: 2
UndoRedoHistory
Layer: 1
Undoes
EndUndoes
Redoes
EndRedoes
EndUndoRedoHistory
Fore
SplineSet
0 1682 m 1
 0 1561 l 1
 465 1561 l 1
 465 1682 l 1
 0 1682 l 1
EndSplineSet
Refer: 214 104 N 1 0 0 1 0 0 2
EndChar

StartChar: hungarumlaut
Encoding: 733 733 217
Width: 1300
VWidth: 0
Flags: HW
LayerCount: 2
UndoRedoHistory
Layer: 1
Undoes
EndUndoes
Redoes
EndRedoes
EndUndoRedoHistory
Fore
SplineSet
452 40 m 1
 521 11 l 1
 723 353 l 1
 559 431 l 1
 452 40 l 1
703 40 m 1
 771 0 l 1
 1034 342 l 1
 867 431 l 1
 703 40 l 1
EndSplineSet
EndChar

StartChar: hyphen
Encoding: 45 45 218
Width: 696
VWidth: 0
Flags: HW
LayerCount: 2
UndoRedoHistory
Layer: 1
Undoes
EndUndoes
Redoes
EndRedoes
EndUndoRedoHistory
Fore
SplineSet
88 958 m 1
 88 858 l 1
 516 858 l 1
 516 958 l 1
 88 958 l 1
EndSplineSet
EndChar

StartChar: i
Encoding: 105 105 219
Width: 474
VWidth: 0
Flags: HW
LayerCount: 2
UndoRedoHistory
Layer: 1
Undoes
EndUndoes
Redoes
EndRedoes
EndUndoRedoHistory
Fore
SplineSet
162 1800 m 1
 162 1615 l 1
 312 1615 l 1
 312 1800 l 1
 162 1800 l 1
162 1500 m 1
 162 0 l 1
 312 0 l 1
 312 1500 l 1
 162 1500 l 1
EndSplineSet
EndChar

StartChar: infinity
Encoding: 8734 8734 227
Width: 1300
VWidth: 0
Flags: HW
LayerCount: 2
UndoRedoHistory
Layer: 1
Undoes
EndUndoes
Redoes
EndRedoes
EndUndoRedoHistory
Fore
SplineSet
1074 740 m 0
 1074 643 1008 578 910 578 c 0
 835 578 744 643 683 740 c 1
 750 837 841 902 910 902 c 0
 1008 902 1074 837 1074 740 c 0
588 740 m 1
 526 643 440 578 374 578 c 0
 280 578 218 643 218 740 c 0
 218 837 280 901 374 901 c 0
 442 901 527 837 588 740 c 1
639 855 m 1
 546 959 439 1028 370 1028 c 0
 201 1028 88 914 88 744 c 0
 88 569 201 452 370 452 c 0
 445 452 552 517 639 615 c 1
 722 509 831 439 912 439 c 0
 1086 439 1202 561 1202 744 c 0
 1202 922 1086 1041 912 1041 c 0
 838 1041 729 967 639 855 c 1
EndSplineSet
EndChar

StartChar: integral
Encoding: 8747 8747 228
Width: 767
VWidth: 0
Flags: HW
LayerCount: 2
UndoRedoHistory
Layer: 1
Undoes
EndUndoes
Redoes
EndRedoes
EndUndoRedoHistory
Fore
SplineSet
316 1539 m 2
 316 305 l 2
 316 160 297 128 170 128 c 0
 154 128 135 129 115 130 c 1
 115 8 l 1
 170 -6 215 -12 252 -12 c 0
 390 -12 453 68 453 221 c 2
 453 1521 l 2
 453 1614 475 1654 538 1654 c 0
 566 1654 604 1645 652 1630 c 1
 652 1752 l 1
 590 1775 537 1787 496 1787 c 0
 378 1787 316 1703 316 1539 c 2
EndSplineSet
EndChar

StartChar: j
Encoding: 106 106 231
Width: 504
VWidth: 0
Flags: HW
LayerCount: 2
UndoRedoHistory
Layer: 1
Undoes
EndUndoes
Redoes
EndRedoes
EndUndoRedoHistory
Fore
SplineSet
195 1787 m 1
 195 1612 l 1
 344 1612 l 1
 344 1787 l 1
 195 1787 l 1
194 1500 m 1
 194 -44 l 2
 194 -81 186 -106 157 -111 c 1
 127 -115 86 -110 86 -110 c 1
 86 -217.946755784 l 1
 87.9218493233 -217.763313848 151.138958999 -229.728864352 220 -221 c 0
 252 -216 343 -190 343 -34 c 2
 343 1500 l 1
 194 1500 l 1
86 -217.946755784 m 2
 86 -218 l 2
 85.9397476338 -217.969873817 86 -217.952453851 86 -217.946755784 c 2
EndSplineSet
EndChar

StartChar: k
Encoding: 107 107 233
Width: 799
VWidth: 0
Flags: HW
LayerCount: 2
UndoRedoHistory
Layer: 1
Undoes
EndUndoes
Redoes
EndRedoes
EndUndoRedoHistory
Fore
SplineSet
161 1783 m 1
 161 0 l 1
 310 0 l 1
 310 742.317919075 l 1
 652 0 l 1
 808 0 l 1
 449 756 l 1
 790 1500 l 1
 641 1500 l 1
 310 759.943283582 l 1
 310 1783 l 1
 161 1783 l 1
EndSplineSet
EndChar

StartChar: kgreenlandic
Encoding: 312 312 235
Width: 799
VWidth: 0
Flags: HW
LayerCount: 2
UndoRedoHistory
Layer: 1
Undoes
EndUndoes
Redoes
EndRedoes
EndUndoRedoHistory
Fore
SplineSet
161 1500 m 1
 161 0 l 1
 310 0 l 1
 310 742.317919075 l 1
 652 0 l 1
 808 0 l 1
 449 756 l 1
 790 1500 l 1
 641 1500 l 1
 310 759.943283582 l 1
 310 1500 l 1
 161 1500 l 1
EndSplineSet
EndChar

StartChar: l
Encoding: 108 108 236
Width: 470
VWidth: 0
Flags: HW
LayerCount: 2
UndoRedoHistory
Layer: 1
Undoes
EndUndoes
Redoes
EndRedoes
EndUndoRedoHistory
Fore
SplineSet
160 1783 m 1
 160 0 l 1
 310 0 l 1
 310 1783 l 1
 160 1783 l 1
EndSplineSet
EndChar

StartChar: less
Encoding: 60 60 241
Width: 730
VWidth: 0
Flags: HW
LayerCount: 2
UndoRedoHistory
Layer: 1
Undoes
EndUndoes
Redoes
EndRedoes
EndUndoRedoHistory
Fore
SplineSet
63 823 m 1
 63 688 l 1
 642 288 l 1
 642 448 l 1
 174 758 l 1
 642 1051 l 1
 642 1219 l 1
 63 823 l 1
EndSplineSet
EndChar

StartChar: lessequal
Encoding: 8804 8804 242
Width: 781
VWidth: 0
Flags: HW
LayerCount: 2
UndoRedoHistory
Layer: 1
Undoes
EndUndoes
Redoes
EndRedoes
EndUndoRedoHistory
Fore
SplineSet
93 111 m 1
 93 0 l 1
 642 0 l 1
 642 111 l 1
 93 111 l 1
59 813 m 1
 59 679 l 1
 638 279 l 1
 638 439 l 1
 171 749 l 1
 638 1042 l 1
 638 1209 l 1
 59 813 l 1
EndSplineSet
EndChar

StartChar: logicalnot
Encoding: 172 172 243
Width: 947
VWidth: 0
Flags: HW
LayerCount: 2
UndoRedoHistory
Layer: 1
Undoes
EndUndoes
Redoes
EndRedoes
EndUndoRedoHistory
Fore
SplineSet
97 858 m 1
 97 743 l 1
 701 743 l 1
 701 439 l 1
 826 439 l 1
 826 858 l 1
 97 858 l 1
EndSplineSet
EndChar

StartChar: lozenge
Encoding: 9674 9674 244
Width: 921
VWidth: 0
Flags: HW
LayerCount: 2
UndoRedoHistory
Layer: 1
Undoes
EndUndoes
Redoes
EndRedoes
EndUndoRedoHistory
Fore
SplineSet
609 713 m 1
 475 179 l 1
 443 179 l 1
 309 713 l 1
 443 1247 l 1
 475 1247 l 1
 609 713 l 1
277 1436 m 1
 34 713 l 1
 277 0 l 1
 648 0 l 1
 887 713 l 1
 648 1436 l 1
 277 1436 l 1
EndSplineSet
EndChar

StartChar: lslash
Encoding: 322 322 245
Width: 731
VWidth: 0
Flags: HW
LayerCount: 2
UndoRedoHistory
Layer: 1
Undoes
EndUndoes
Redoes
EndRedoes
EndUndoRedoHistory
Fore
SplineSet
99 921 m 1
 99 778 l 1
 610 1010 l 1
 610 1153 l 1
 99 921 l 1
EndSplineSet
Refer: 236 108 N 1 0 0 1 94 0 2
EndChar

StartChar: m
Encoding: 109 109 246
Width: 1362
VWidth: 0
Flags: HW
LayerCount: 2
UndoRedoHistory
Layer: 1
Undoes
EndUndoes
Redoes
EndRedoes
EndUndoRedoHistory
Fore
SplineSet
309 1351 m 1
 309 1500 l 1
 160 1500 l 1
 160 0 l 1
 309 0 l 1
 309 1209 l 2
 309 1324 370 1381 475 1381 c 0
 554 1381 611 1348 611 1226 c 2
 611 0 l 1
 760 0 l 1
 760 1217 l 2
 760 1224.53449786 759.877395458 1231.9257275 759.634487576 1239.17394455 c 0
 767.451560716 1364.78621023 846.22578018 1381 925 1381 c 0
 1006 1381 1062 1345 1062 1226 c 2
 1062 0 l 1
 1212 0 l 1
 1212 1217 l 2
 1212 1429 1117 1519 993 1519 c 0
 883.43089883 1519 786.352540157 1455.65409162 738.845204058 1366.88528859 c 1
 704.967198981 1468.89518449 632.618002936 1519 538 1519 c 0
 424 1519 334 1436 309 1351 c 1
EndSplineSet
EndChar

StartChar: macron
Encoding: 175 175 247
Width: 696
VWidth: 0
Flags: HW
LayerCount: 2
UndoRedoHistory
Layer: 1
Undoes
EndUndoes
Redoes
EndRedoes
EndUndoRedoHistory
Fore
SplineSet
90 43 m 1
 90 -70 l 1
 585 -70 l 1
 585 43 l 1
 90 43 l 1
EndSplineSet
EndChar

StartChar: minus
Encoding: 8722 8722 248
Width: 637
VWidth: 0
Flags: HW
LayerCount: 2
UndoRedoHistory
Layer: 1
Undoes
EndUndoes
Redoes
EndRedoes
EndUndoRedoHistory
Fore
SplineSet
20 741 m 1
 20 626 l 1
 616 626 l 1
 616 741 l 1
 20 741 l 1
EndSplineSet
EndChar

StartChar: mu
Encoding: 956 956 249
Width: 923
VWidth: 0
Flags: HW
LayerCount: 2
UndoRedoHistory
Layer: 1
Undoes
EndUndoes
Redoes
EndRedoes
EndUndoRedoHistory
Fore
SplineSet
614 1500 m 1
 614 303 l 1
 615 190 552 119 447 119 c 0
 357 119 300 174 300 292 c 2
 300 1500 l 1
 150 1500 l 1
 150 -186 l 1
 300 -186 l 1
 300 -1 l 1
 330.163 -15 360.983 -20 388 -20 c 0
 504 -20 591 64.9999 615 150 c 1
 615 0 l 1
 764 0 l 1
 764 1500 l 1
 614 1500 l 1
EndSplineSet
EndChar

StartChar: multiply
Encoding: 215 215 250
Width: 710
VWidth: 0
Flags: HW
LayerCount: 2
UndoRedoHistory
Layer: 1
Undoes
EndUndoes
Redoes
EndRedoes
EndUndoRedoHistory
Fore
SplineSet
355 789 m 1
 208 936 l 1
 44 772 l 1
 191 625 l 1
 44 478 l 1
 208 314 l 1
 355 461 l 1
 502 314 l 1
 666 478 l 1
 519 625 l 1
 666 772 l 1
 502 936 l 1
 355 789 l 1
EndSplineSet
EndChar

StartChar: n
Encoding: 110 110 251
Width: 922
VWidth: 0
Flags: HW
LayerCount: 2
UndoRedoHistory
Layer: 1
Undoes
EndUndoes
Redoes
EndRedoes
EndUndoRedoHistory
Fore
SplineSet
309 1353 m 1
 309 1500 l 1
 160 1500 l 1
 160 0 l 1
 309 0 l 1
 309 1220 l 2
 309 1354 395 1387 478 1387 c 0
 558 1387 623 1346 623 1223 c 2
 623 0 l 1
 772 0 l 1
 772 1211 l 2
 772 1425 680 1519 551 1519 c 0
 434 1519 335 1438 309 1353 c 1
EndSplineSet
EndChar

StartChar: nine
Encoding: 57 57 255
Width: 746
VWidth: 0
Flags: HW
LayerCount: 2
UndoRedoHistory
Layer: 1
Undoes
EndUndoes
Redoes
EndRedoes
EndUndoRedoHistory
Fore
SplineSet
522 1255 m 2
 522 803 l 1
 502 794 461 776 386 776 c 0
 250 776 237 885 237 1208 c 2
 237 1257 l 2
 237 1518 246 1653 381 1653 c 0
 509 1653 522 1518 522 1255 c 2
87 1252 m 2
 87 1226 l 2
 87 857 129 662 372 662 c 0
 431 662 487 678 522 712 c 1
 522 523 l 2
 522 226 536 103 409 103 c 0
 289 103 272 157 270 483 c 0
 270 493 270 498 270 508 c 1
 127 508 l 1
 127 491 127 489 128 473 c 0
 133 140 178 -20 396 -20 c 0
 652 -20 672 186 672 542 c 2
 672 1254 l 2
 672 1548 653 1780 380 1780 c 0
 104 1780 87 1549 87 1252 c 2
EndSplineSet
EndChar

StartChar: numbersign
Encoding: 35 35 258
Width: 1288
VWidth: 0
Flags: HW
LayerCount: 2
UndoRedoHistory
Layer: 1
Undoes
EndUndoes
Redoes
EndRedoes
EndUndoRedoHistory
Fore
SplineSet
713 765 m 1
 493 765 l 1
 547 1035 l 1
 766 1035 l 1
 713 765 l 1
909 1761 m 1
 784 1138 l 1
 568 1138 l 1
 693 1761 l 1
 563 1761 l 1
 440 1138 l 1
 224 1138 l 1
 224 1041 l 1
 421 1041 l 1
 367 767 l 1
 181 767 l 1
 181 670 l 1
 347 670 l 1
 215 0 l 1
 344 0 l 1
 475 670 l 1
 691 670 l 1
 561 0 l 1
 690 0 l 1
 823 670 l 1
 1036 670 l 1
 1036 767 l 1
 842 767 l 1
 896 1041 l 1
 1079 1041 l 1
 1079 1138 l 1
 916 1138 l 1
 1039 1761 l 1
 909 1761 l 1
EndSplineSet
EndChar

StartChar: o
Encoding: 111 111 259
Width: 845
VWidth: 0
Flags: HW
LayerCount: 2
UndoRedoHistory
Layer: 1
Undoes
EndUndoes
Redoes
EndRedoes
EndUndoRedoHistory
Fore
SplineSet
568 1053 m 2
 568 463 l 2
 568 253 550 113 426 113 c 0
 293 113 277 253 277 463 c 2
 277 1053 l 2
 277 1250 291 1387 426 1387 c 0
 551 1387 568 1250 568 1053 c 2
128 1018 m 2
 128 515 l 2
 128 204 149 -18 426 -18 c 0
 705 -18 717 209 717 515 c 2
 717 1018 l 2
 717 1301 696 1518 426 1518 c 0
 157 1518 128 1300 128 1018 c 2
EndSplineSet
EndChar

StartChar: oe
Encoding: 339 339 264
Width: 1755
VWidth: 0
Flags: HW
LayerCount: 2
UndoRedoHistory
Layer: 1
Undoes
EndUndoes
Redoes
EndRedoes
EndUndoRedoHistory
Fore
SplineSet
1000 1068 m 2
 1000 874 l 1
 729 874 l 1
 729 1063 l 2
 729 1259 747 1387 878 1387 c 0
 1003 1387 1000 1273 1000 1068 c 2
579 1053 m 2
 579 463 l 2
 579 253 562 113 437 113 c 0
 304 113 289 253 289 463 c 2
 289 1053 l 2
 289 1250 303 1388 437 1388 c 0
 562 1388 579 1250 579 1053 c 2
655 1396 m 1
 613 1467 544 1518 437 1518 c 0
 168 1518 140 1300 140 1018 c 2
 140 515 l 2
 140 204 160 -18 437 -18 c 0
 539 -18 605 34 648 106 c 1
 692 33 760 -18 871 -18 c 0
 1146 -18 1144 202 1144 505 c 2
 1144 556 l 1
 999 556 l 1
 999 439 l 2
 999 231 992 113 870 113 c 0
 739 113 728 220 728 450 c 2
 728 754 l 1
 1149 754 l 1
 1149 1002 l 2
 1149 1292 1145 1518 876 1518 c 0
 769 1518 700 1467 655 1396 c 1
EndSplineSet
EndChar

StartChar: ogonek
Encoding: 731 731 265
Width: 1015
VWidth: 0
Flags: HW
LayerCount: 2
UndoRedoHistory
Layer: 1
Undoes
EndUndoes
Redoes
EndRedoes
EndUndoRedoHistory
Fore
SplineSet
667 0 m 1
 543 -92 491 -199 491 -285 c 0
 491 -403 592 -431 681 -431 c 0
 745 -431 802 -416 812 -411 c 1
 812 -318.063487457 l 2
 811.021740767 -319.643520615 751.043046414 -339 693 -339 c 0
 638 -339 585 -321 585 -252 c 0
 585 -184 628 -88 731 0 c 1
 667 0 l 1
812 -318.063487457 m 2
 812 -318 l 2
 812.016219552 -318.016219552 812 -318.037437508 812 -318.063487457 c 2
EndSplineSet
EndChar

StartChar: one
Encoding: 49 49 269
Width: 569
VWidth: 0
Flags: HW
LayerCount: 2
UndoRedoHistory
Layer: 1
Undoes
EndUndoes
Redoes
EndRedoes
EndUndoRedoHistory
Fore
SplineSet
314 1761 m 1
 258 1629 142 1556 36 1541 c 1
 36 1448 l 1
 110 1448 206 1477 254 1534 c 1
 254 0 l 1
 403 0 l 1
 403 1761 l 1
 314 1761 l 1
EndSplineSet
EndChar

StartChar: onehalf
Encoding: 189 189 270
Width: 1620
VWidth: 0
Flags: HW
LayerCount: 2
UndoRedoHistory
Layer: 1
Undoes
EndUndoes
Redoes
EndRedoes
EndUndoRedoHistory
Fore
SplineSet
1127 904 m 2
 1127 821 l 1
 1244 821 l 1
 1244 1001 l 2
 1244 1238 1290 1273 1341 1273 c 0
 1391 1273 1431 1236 1431 1013 c 0
 1431 920 1408 789 1377 724 c 1
 1391 740 1131 157 1131 74 c 2
 1131 1 l 1
 1523 1 l 1
 1523 82 l 1
 1245 82 l 1
 1279 439 1543 635 1543 997 c 0
 1543 1168 1525 1372 1358 1372 c 0
 1134 1372 1127 1196 1127 904 c 2
312 1774 m 1
 266 1671 182 1617 100 1604 c 1
 100 1529 l 1
 157 1529 232 1552 267 1597 c 1
 267 416 l 1
 383 416 l 1
 383 1774 l 1
 312 1774 l 1
948 1768 m 1
 489 0 l 1
 607 0 l 1
 1068 1768 l 1
 948 1768 l 1
EndSplineSet
EndChar

StartChar: onequarter
Encoding: 188 188 271
Width: 1535
VWidth: 0
Flags: HW
LayerCount: 2
UndoRedoHistory
Layer: 1
Undoes
EndUndoes
Redoes
EndRedoes
EndUndoRedoHistory
Fore
SplineSet
1192 1224 m 1
 916 314 l 1
 916 244 l 1
 1188 244 l 1
 1188 0 l 1
 1284 0 l 1
 1284 244 l 1
 1393 244 l 1
 1393 326 l 1
 1284 326 l 1
 1284 1224 l 1
 1192 1224 l 1
1188 326 m 1
 1007 326 l 1
 1188 989 l 1
 1188 326 l 1
312 1774 m 1
 266 1671 182 1617 100 1604 c 1
 100 1529 l 1
 157 1529 232 1552 267 1597 c 1
 267 416 l 1
 383 416 l 1
 383 1774 l 1
 312 1774 l 1
948 1768 m 1
 489 0 l 1
 607 0 l 1
 1068 1768 l 1
 948 1768 l 1
EndSplineSet
EndChar

StartChar: ordfeminine
Encoding: 170 170 272
Width: 927
VWidth: 0
Flags: HW
LayerCount: 2
UndoRedoHistory
Layer: 1
Undoes
EndUndoes
Redoes
EndRedoes
EndUndoRedoHistory
Fore
SplineSet
584 558 m 1
 565 526 510 479 447 479 c 0
 370 479 352 540 352 702 c 2
 352 799 l 2
 352 954 385 974 584 1063 c 1
 584 558 l 1
247.084866259 1200 m 2
 368 1200 l 1
 368 1230 l 2
 368 1426 378 1503 480 1503 c 0
 579 1503 584 1434 584 1249 c 2
 584 1157 l 1
 388 1071 234 1016 234 845 c 2
 234 692 l 2
 234 490 297 379 425 379 c 0
 524 379 573 448 584 481 c 1
 584 389 l 1
 704 389 l 1
 704 1173 l 2
 704 1453 706 1608 479 1608 c 0
 256 1608 248 1426 248 1233 c 1
 248 1233 247.084866259 1200.95192397 247.084866259 1200 c 2
247.084866259 1200 m 2
 247.057409528 1199.97143945 247.029129014 1200 247 1200 c 2
 247.084866259 1200 l 2
EndSplineSet
EndChar

StartChar: ordmasculine
Encoding: 186 186 273
Width: 908
VWidth: 0
Flags: HW
LayerCount: 2
UndoRedoHistory
Layer: 1
Undoes
EndUndoes
Redoes
EndRedoes
EndUndoRedoHistory
Fore
SplineSet
590 1234 m 2
 590 760 l 2
 590 592 578 478 477 478 c 0
 368 478 358 591 358 760 c 2
 358 1234 l 2
 358 1392 369 1502 477 1502 c 0
 577 1502 590 1392 590 1234 c 2
239 1205 m 2
 239 801 l 2
 239 552 254 374 477 374 c 0
 701 374 710 556 710 801 c 2
 710 1205 l 2
 710 1433 691 1607 477 1607 c 0
 262 1607 239 1432 239 1205 c 2
EndSplineSet
EndChar

StartChar: oslash
Encoding: 248 248 274
Width: 879
VWidth: 0
Flags: HW
LayerCount: 2
UndoRedoHistory
Layer: 1
Undoes
EndUndoes
Redoes
EndRedoes
EndUndoRedoHistory
Fore
SplineSet
134 -145 m 1
 234 -173 l 1
 744 1644 l 1
 643 1672 l 1
 134 -145 l 1
EndSplineSet
Refer: 259 111 N 1 0 0 1 0 0 2
EndChar

StartChar: p
Encoding: 112 112 276
Width: 873
VWidth: 0
Flags: HW
LayerCount: 2
UndoRedoHistory
Layer: 1
Undoes
EndUndoes
Redoes
EndRedoes
EndUndoRedoHistory
Fore
SplineSet
596 1061 m 2
 596 468 l 2
 596 214 570 116 461 115 c 1
 335 115 309 222 309 463 c 2
 309 1059 l 2
 309 1351 370 1386 467 1386 c 0
 585 1386 596 1259 596 1061 c 2
309 1385 m 1
 309 1500 l 1
 160 1500 l 1
 160 -265 l 1
 309 -265 l 1
 309 108 l 1
 335 40 398 -18 469 -18 c 0
 693 -18 745 194 745 475 c 2
 745 1013 l 2
 745 1298 713 1511 508 1511 c 0
 430 1511 350 1482 309 1385 c 1
EndSplineSet
EndChar

StartChar: paragraph
Encoding: 182 182 277
Width: 1119
VWidth: 0
Flags: HW
LayerCount: 2
UndoRedoHistory
Layer: 1
Undoes
EndUndoes
Redoes
EndRedoes
EndUndoRedoHistory
Fore
SplineSet
666 1761 m 2
 263 1761 159 1692 159 1474 c 0
 159 1307 268 1203 473 1180 c 1
 473 0 l 1
 636 0 l 1
 636 1620 l 1
 779 1620 l 1
 779 0 l 1
 942 0 l 1
 942 1761 l 1
 666 1761 l 2
EndSplineSet
EndChar

StartChar: parenleft
Encoding: 40 40 278
Width: 519
VWidth: 0
Flags: HW
LayerCount: 2
UndoRedoHistory
Layer: 1
Undoes
EndUndoes
Redoes
EndRedoes
EndUndoRedoHistory
Fore
SplineSet
133 1388 m 2
 133 313 l 2
 133 -50 184 -99 421 -99 c 1
 421 14 l 1
 301 14 282 6 282 309 c 2
 282 1392 l 2
 282 1695 301 1687 421 1687 c 1
 421 1800 l 1
 184 1800 133 1751 133 1388 c 2
EndSplineSet
EndChar

StartChar: parenright
Encoding: 41 41 279
Width: 519
VWidth: 0
Flags: HW
LayerCount: 2
UndoRedoHistory
Layer: 1
Undoes
EndUndoes
Redoes
EndRedoes
EndUndoRedoHistory
Fore
SplineSet
98 1687 m 1
 218 1687 237 1695 237 1392 c 2
 237 309 l 2
 237 6 218 14 98 14 c 1
 98 -99 l 1
 335 -99 386 -50 386 313 c 2
 386 1388 l 2
 386 1751 335 1800 98 1800 c 1
 98 1687 l 1
EndSplineSet
EndChar

StartChar: partialdiff
Encoding: 8706 8706 280
Width: 1072
VWidth: 0
Flags: HW
LayerCount: 2
UndoRedoHistory
Layer: 1
Undoes
EndUndoes
Redoes
EndRedoes
EndUndoRedoHistory
Fore
SplineSet
622 759 m 1
 591 419 l 2
 585 349 556 293 490 293 c 0
 432 293 417 332 417 391 c 0
 417 411 419 439 423 475 c 2
 440 645 l 2
 450 744 481 794 534 794 c 0
 560 794 589 782 622 759 c 1
229 1607 m 1
 283 1376 l 1
 334 1396 432 1415 507 1415 c 0
 626 1415 665 1306 665 1164 c 0
 665 1132 661 1093 654 1047 c 1
 577 1073 508 1086 445 1086 c 0
 123 1086 37 735 37 413 c 0
 37 127 158 -21 446 -21 c 0
 669 -21 811 54 890 196 c 0
 977 354 1030 1074 1030 1159 c 0
 1030 1479 928 1681 619 1681 c 0
 513 1681 383 1656 229 1607 c 1
EndSplineSet
EndChar

StartChar: percent
Encoding: 37 37 281
Width: 2148
VWidth: 0
Flags: HW
LayerCount: 2
UndoRedoHistory
Layer: 1
Undoes
EndUndoes
Redoes
EndRedoes
EndUndoRedoHistory
Fore
SplineSet
1821 835 m 2
 1821 335 l 2
 1821 164 1790 117 1684 117 c 0
 1578 117 1547 164 1547 335 c 2
 1547 835 l 2
 1547 1000 1578 1045 1684 1045 c 0
 1789 1045 1821 1000 1821 835 c 2
1399 763 m 2
 1399 411 l 2
 1399 71 1460 -20 1684 -20 c 0
 1907 -20 1968 71 1968 411 c 2
 1968 763 l 2
 1968 1090 1906 1181 1684 1181 c 0
 1461 1181 1399 1090 1399 763 c 2
180 1364 m 2
 180 1012 l 2
 180 672 241 581 464 581 c 0
 688 581 749 672 749 1012 c 2
 749 1364 l 2
 749 1691 687 1782 464 1782 c 0
 242 1782 180 1691 180 1364 c 2
601 1436 m 2
 601 936 l 2
 601 765 571 718 464 718 c 0
 358 718 327 765 327 936 c 2
 327 1436 l 2
 327 1601 359 1646 464 1646 c 0
 570 1646 601 1601 601 1436 c 2
1372 1760 m 1
 642 0 l 1
 790 0 l 1
 1512 1760 l 1
 1372 1760 l 1
EndSplineSet
EndChar

StartChar: period
Encoding: 46 46 282
Width: 532
VWidth: 0
Flags: HW
LayerCount: 2
UndoRedoHistory
Layer: 1
Undoes
EndUndoes
Redoes
EndRedoes
EndUndoRedoHistory
Fore
SplineSet
174 164 m 1
 174 0 l 1
 328 0 l 1
 328 164 l 1
 174 164 l 1
EndSplineSet
EndChar

StartChar: periodcentered
Encoding: 183 183 283
Width: 480
VWidth: 0
Flags: HW
LayerCount: 2
UndoRedoHistory
Layer: 1
Undoes
EndUndoes
Redoes
EndRedoes
EndUndoRedoHistory
Fore
SplineSet
163 961 m 1
 163 786 l 1
 333 786 l 1
 333 961 l 1
 163 961 l 1
EndSplineSet
EndChar

StartChar: perthousand
Encoding: 8240 8240 284
Width: 3206
VWidth: 0
Flags: HW
LayerCount: 2
UndoRedoHistory
Layer: 1
Undoes
EndUndoes
Redoes
EndRedoes
EndUndoRedoHistory
Fore
SplineSet
2653 835 m 2
 2653 335 l 2
 2653 164 2622 117 2516 117 c 0
 2410 117 2379 164 2379 335 c 2
 2379 835 l 2
 2379 1000 2411 1045 2516 1045 c 0
 2622 1045 2653 1000 2653 835 c 2
2232 763 m 2
 2232 411 l 2
 2232 71 2292 -20 2516 -20 c 0
 2740 -20 2800 71 2800 411 c 2
 2800 763 l 2
 2800 1090 2738 1181 2516 1181 c 0
 2294 1181 2232 1090 2232 763 c 2
1845 835 m 2
 1845 335 l 2
 1845 164 1814 117 1708 117 c 0
 1602 117 1571 164 1571 335 c 2
 1571 835 l 2
 1571 1000 1602 1045 1708 1045 c 0
 1813 1045 1845 1000 1845 835 c 2
1424 763 m 2
 1424 411 l 2
 1424 71 1484 -20 1708 -20 c 0
 1932 -20 1992 71 1992 411 c 2
 1992 763 l 2
 1992 1090 1930 1181 1708 1181 c 0
 1486 1181 1424 1090 1424 763 c 2
180 1364 m 2
 180 1012 l 2
 180 672 241 581 464 581 c 0
 688 581 749 672 749 1012 c 2
 749 1364 l 2
 749 1691 687 1782 464 1782 c 0
 242 1782 180 1691 180 1364 c 2
601 1436 m 2
 601 936 l 2
 601 765 571 718 464 718 c 0
 358 718 327 765 327 936 c 2
 327 1436 l 2
 327 1601 359 1646 464 1646 c 0
 570 1646 601 1601 601 1436 c 2
1372 1760 m 1
 642 0 l 1
 790 0 l 1
 1512 1760 l 1
 1372 1760 l 1
EndSplineSet
EndChar

StartChar: plus
Encoding: 43 43 286
Width: 808
VWidth: 0
Flags: HW
LayerCount: 2
UndoRedoHistory
Layer: 1
Undoes
EndUndoes
Redoes
EndRedoes
EndUndoRedoHistory
Fore
SplineSet
342 1208 m 1
 342 948 l 1
 112 948 l 1
 112 842 l 1
 342 842 l 1
 342 576 l 1
 460 576 l 1
 460 842 l 1
 694 842 l 1
 694 948 l 1
 460 948 l 1
 460 1208 l 1
 342 1208 l 1
EndSplineSet
EndChar

StartChar: plusminus
Encoding: 177 177 287
Width: 854
VWidth: 0
Flags: HW
LayerCount: 2
UndoRedoHistory
Layer: 1
Undoes
EndUndoes
Redoes
EndRedoes
EndUndoRedoHistory
Fore
SplineSet
173 377 m 1
 173 259 l 1
 689 259 l 1
 689 377 l 1
 173 377 l 1
368 1185 m 1
 368 926 l 1
 138 926 l 1
 138 820 l 1
 368 820 l 1
 368 554 l 1
 486 554 l 1
 486 820 l 1
 720 820 l 1
 720 926 l 1
 486 926 l 1
 486 1185 l 1
 368 1185 l 1
EndSplineSet
EndChar

StartChar: product
Encoding: 8719 8719 288
Width: 933
VWidth: 0
Flags: HW
LayerCount: 2
UndoRedoHistory
Layer: 1
Undoes
EndUndoes
Redoes
EndRedoes
EndUndoRedoHistory
Fore
SplineSet
155 1760 m 1
 155 0 l 1
 305 0 l 1
 305 1649 l 1
 628 1649 l 1
 628 0 l 1
 778 0 l 1
 778 1760 l 1
 155 1760 l 1
EndSplineSet
EndChar

StartChar: q
Encoding: 113 113 289
Width: 858
VWidth: 0
Flags: HW
LayerCount: 2
UndoRedoHistory
Layer: 1
Undoes
EndUndoes
Redoes
EndRedoes
EndUndoRedoHistory
Fore
SplineSet
564 1037 m 2
 564 441 l 2
 564 147 502 114 406 114 c 0
 288 114 276 241 276 437 c 2
 276 1031 l 2
 276 1286 303 1384 412 1385 c 1
 540 1385 564 1276 564 1037 c 2
128 1013 m 2
 128 479 l 2
 128 198 178 -18 404 -18 c 0
 475 -18 537 39 565 106 c 1
 565 -265 l 1
 715 -265 l 1
 715 1500 l 1
 565 1500 l 1
 565 1381 l 1
 524 1480 442 1511 364 1511 c 0
 157 1511 128 1298 128 1013 c 2
EndSplineSet
EndChar

StartChar: question
Encoding: 63 63 290
Width: 708
VWidth: 0
Flags: HW
LayerCount: 2
UndoRedoHistory
Layer: 1
Undoes
EndUndoes
Redoes
EndRedoes
EndUndoRedoHistory
Fore
SplineSet
227 299 m 1
 227 1 l 1
 353 1 l 1
 353 299 l 1
 227 299 l 1
158 1365 m 2
 158 1160 l 1
 308 1160 l 1
 308 1375 l 2
 308 1596 309 1655 396 1655 c 0
 476 1655 474 1588 474 1379 c 0
 474 1035 476 901 228 810 c 1
 228 494 l 1
 353 494 l 1
 353 750 l 1
 562 808 623 968 623 1314 c 0
 623 1590 631 1782 392 1782 c 0
 121 1782 158 1510 158 1365 c 2
EndSplineSet
EndChar

StartChar: quotedbl
Encoding: 34 34 292
Width: 944
VWidth: 0
Flags: HW
LayerCount: 2
UndoRedoHistory
Layer: 1
Undoes
EndUndoes
Redoes
EndRedoes
EndUndoRedoHistory
Fore
SplineSet
267 1761 m 1
 325 1125 l 1
 359 1125 l 1
 423 1761 l 1
 267 1761 l 1
535 1761 m 1
 593 1125 l 1
 627 1125 l 1
 692 1761 l 1
 535 1761 l 1
EndSplineSet
EndChar

StartChar: quotedblbase
Encoding: 8222 8222 293
Width: 1016
VWidth: 0
Flags: HW
LayerCount: 2
UndoRedoHistory
Layer: 1
Undoes
EndUndoes
Redoes
EndRedoes
EndUndoRedoHistory
Fore
SplineSet
181 206 m 1
 181 0 l 1
 327 0 l 1
 233 -428 l 1
 336 -428 l 1
 456 9 l 1
 456 206 l 1
 181 206 l 1
628 206 m 1
 628 0 l 1
 774 0 l 1
 680 -428 l 1
 783 -428 l 1
 903 9 l 1
 903 206 l 1
 628 206 l 1
EndSplineSet
EndChar

StartChar: quotedblleft
Encoding: 8220 8220 294
Width: 1030
VWidth: 0
Flags: HW
LayerCount: 2
UndoRedoHistory
Layer: 1
Undoes
EndUndoes
Redoes
EndRedoes
EndUndoRedoHistory
Fore
SplineSet
295 1783 m 1
 176 1346 l 1
 176 1149 l 1
 451 1149 l 1
 451 1355 l 1
 305 1355 l 1
 399 1783 l 1
 295 1783 l 1
742 1783 m 1
 623 1346 l 1
 623 1149 l 1
 898 1149 l 1
 898 1355 l 1
 752 1355 l 1
 845 1783 l 1
 742 1783 l 1
EndSplineSet
EndChar

StartChar: quotedblright
Encoding: 8221 8221 295
Width: 1077
VWidth: 0
Flags: HW
LayerCount: 2
UndoRedoHistory
Layer: 1
Undoes
EndUndoes
Redoes
EndRedoes
EndUndoRedoHistory
Fore
SplineSet
191 1783 m 1
 191 1577 l 1
 337 1577 l 1
 243 1149 l 1
 346 1149 l 1
 466 1586 l 1
 466 1783 l 1
 191 1783 l 1
638 1783 m 1
 638 1577 l 1
 783 1577 l 1
 690 1149 l 1
 793 1149 l 1
 913 1586 l 1
 913 1783 l 1
 638 1783 l 1
EndSplineSet
EndChar

StartChar: quoteleft
Encoding: 8216 8216 296
Width: 597
VWidth: 0
Flags: HW
LayerCount: 2
UndoRedoHistory
Layer: 1
Undoes
EndUndoes
Redoes
EndRedoes
EndUndoRedoHistory
Fore
SplineSet
281 1783 m 1
 167 1357 l 1
 167 1164 l 1
 438 1164 l 1
 438 1366 l 1
 296 1366 l 1
 387 1783 l 1
 281 1783 l 1
EndSplineSet
EndChar

StartChar: quoteright
Encoding: 8217 8217 297
Width: 597
VWidth: 0
Flags: HW
LayerCount: 2
UndoRedoHistory
Layer: 1
Undoes
EndUndoes
Redoes
EndRedoes
EndUndoRedoHistory
Fore
SplineSet
189 1783 m 1
 189 1581 l 1
 331 1581 l 1
 240 1164 l 1
 346 1164 l 1
 460 1590 l 1
 460 1783 l 1
 189 1783 l 1
EndSplineSet
EndChar

StartChar: quotesinglbase
Encoding: 8218 8218 298
Width: 484
VWidth: 0
Flags: HW
LayerCount: 2
UndoRedoHistory
Layer: 1
Undoes
EndUndoes
Redoes
EndRedoes
EndUndoRedoHistory
Fore
SplineSet
113 207 m 1
 113 0 l 1
 259 0 l 1
 166 -437 l 1
 269 -437 l 1
 388 9 l 1
 388 207 l 1
 113 207 l 1
EndSplineSet
EndChar

StartChar: quotesingle
Encoding: 39 39 299
Width: 404
VWidth: 0
Flags: HW
LayerCount: 2
UndoRedoHistory
Layer: 1
Undoes
EndUndoes
Redoes
EndRedoes
EndUndoRedoHistory
Fore
SplineSet
124 1761 m 1
 184 1125 l 1
 217 1125 l 1
 282 1761 l 1
 124 1761 l 1
EndSplineSet
EndChar

StartChar: r
Encoding: 114 114 300
Width: 617
VWidth: 0
Flags: HW
LayerCount: 2
UndoRedoHistory
Layer: 1
Undoes
EndUndoes
Redoes
EndRedoes
EndUndoRedoHistory
Fore
SplineSet
310 1333 m 1
 310 1500 l 1
 161 1500 l 1
 161 0 l 1
 310 0 l 1
 310 1246 l 1
 391 1361 469 1391 568 1391 c 1
 568 1391 570 1518 565 1518 c 0
 432 1518 344 1449 310 1333 c 1
EndSplineSet
EndChar

StartChar: radical
Encoding: 8730 8730 302
Width: 1537
VWidth: 0
Flags: HW
LayerCount: 2
UndoRedoHistory
Layer: 1
Undoes
EndUndoes
Redoes
EndRedoes
EndUndoRedoHistory
Fore
SplineSet
609 1500 m 1
 472 338 l 1
 358 741 l 1
 89 741 l 1
 308 0 l 1
 682 0 l 1
 878 1269 l 1
 1442 1269 l 1
 1442 1500 l 1
 609 1500 l 1
EndSplineSet
EndChar

StartChar: registered
Encoding: 174 174 305
Width: 1502
VWidth: 0
Flags: HW
LayerCount: 2
UndoRedoHistory
Layer: 1
Undoes
EndUndoes
Redoes
EndRedoes
EndUndoRedoHistory
Fore
SplineSet
1309 862 m 0
 1309 533 1059 271 733 271 c 0
 407 271 157 533 157 862 c 0
 157 1191 407 1453 733 1453 c 0
 1059 1453 1309 1191 1309 862 c 0
76 862 m 0
 76 489 360 205 733 205 c 0
 1106 205 1390 489 1390 862 c 0
 1390 1235 1106 1519 733 1519 c 0
 360 1519 76 1235 76 862 c 0
863 1076 m 0
 863 994 811 951 726 951 c 2
 648 951 l 1
 648 1210 l 1
 818 1210 863 1187 863 1076 c 0
527 1298 m 1
 527 446 l 1
 647 446 l 1
 647 864 l 1
 767 864 849 888 849 748 c 2
 849 446 l 1
 967 446 l 1
 967 787 l 2
 967 858 911 900 858 910 c 1
 930 933 981 983 981 1075 c 0
 981 1242 885 1298 740 1298 c 2
 527 1298 l 1
EndSplineSet
EndChar

StartChar: ring
Encoding: 730 730 306
Width: 923
VWidth: 0
Flags: HW
LayerCount: 2
UndoRedoHistory
Layer: 1
Undoes
EndUndoes
Redoes
EndRedoes
EndUndoRedoHistory
Fore
SplineSet
561 72 m 0
 561 21 528 -30 461 -30 c 0
 397 -30 364 21 364 72 c 0
 364 123 397 174 461 174 c 0
 528 174 561 123 561 72 c 0
292 71 m 0
 292 -2 347 -81 461 -81 c 0
 576 -81 630 -2 630 71 c 0
 630 145 576 224 461 224 c 0
 347 224 292 145 292 71 c 0
EndSplineSet
EndChar

StartChar: s
Encoding: 115 115 307
Width: 757
VWidth: 0
Flags: HW
LayerCount: 2
UndoRedoHistory
Layer: 1
Undoes
EndUndoes
Redoes
EndRedoes
EndUndoRedoHistory
Fore
SplineSet
92 1180 m 0
 92 1029 166 883 293 754 c 2
 372 674 l 2
 481 563 528 446 528 334 c 0
 528 168 489 116 392 116 c 0
 297 116 254 230 254 433 c 2
 254 536 l 1
 101 536 l 1
 101 407 l 2
 101 108 196 -20 405 -20 c 0
 597 -20 682 121 682 325 c 0
 682 485 612 635 483 764 c 1
 406 839 l 2
 289 952 239 1074 243 1186 c 0
 248 1335 293 1381 386 1381 c 0
 476 1381 506 1267 506 1064 c 2
 506 957 l 1
 661 957 l 1
 661 1037 l 2
 661 1386 577 1518 385 1518 c 0
 213 1518 92 1409 92 1180 c 0
EndSplineSet
EndChar

StartChar: section
Encoding: 167 167 313
Width: 950
VWidth: 0
Flags: HW
LayerCount: 2
UndoRedoHistory
Layer: 1
Undoes
EndUndoes
Redoes
EndRedoes
EndUndoRedoHistory
Fore
SplineSet
586 856 m 0
 586 822 565 775 541 735 c 1
 467 764 381 822 381 902 c 0
 381 935 396 974 426 1017 c 1
 546 967 586 906 586 856 c 0
125 1433 m 0
 125 1328 166 1218 248 1143 c 1
 166 1067 125 960 125 862 c 0
 125 697 238 612 336 542 c 0
 454 457 566 388 566 303 c 0
 566 240 543 220 497 220 c 0
 445 220 406 244 406 391 c 1
 107 391 l 1
 107 90 243 -20 488 -20 c 0
 714 -20 855 91 855 293 c 0
 855 430 794 511 700 598 c 1
 782 674 852 781 852 879 c 0
 852 1044 742 1156 640 1221 c 1
 594 1252 412 1368 412 1451 c 0
 412 1509 435 1542 497 1542 c 0
 560 1542 580 1502 580 1372 c 1
 853 1372 l 1
 853 1667 725 1781 487 1781 c 0
 292 1781 125 1662 125 1433 c 0
EndSplineSet
EndChar

StartChar: semicolon
Encoding: 59 59 314
Width: 561
VWidth: 0
Flags: HW
LayerCount: 2
UndoRedoHistory
Layer: 1
Undoes
EndUndoes
Redoes
EndRedoes
EndUndoRedoHistory
Fore
SplineSet
181 523 m 1
 181 350 l 1
 296 350 l 1
 200 0 l 1
 277 0 l 1
 381 359 l 1
 381 523 l 1
 181 523 l 1
179 1279 m 1
 179 1048 l 1
 362 1048 l 1
 362 1279 l 1
 179 1279 l 1
EndSplineSet
EndChar

StartChar: seven
Encoding: 55 55 315
Width: 746
VWidth: 0
Flags: HW
LayerCount: 2
UndoRedoHistory
Layer: 1
Undoes
EndUndoes
Redoes
EndRedoes
EndUndoRedoHistory
Fore
SplineSet
56 1761 m 1
 56 1644 l 1
 559 1644 l 1
 559 1644 483 1472 395 1165 c 1
 319 886 235 477 197 1 c 1
 352 1 l 1
 381 454 467 874 543 1175 c 0
 619.75639994 1476.19599976 687.072734294 1663.16720595 689 1654.28310588 c 1
 689 1761 l 1
 56 1761 l 1
689 1654.28310588 m 2
 689.05633424 1654.02342242 689 1653.59640002 689 1653 c 2
 689 1654.28310588 l 2
EndSplineSet
EndChar

StartChar: six
Encoding: 54 54 316
Width: 746
VWidth: 0
Flags: HW
LayerCount: 2
UndoRedoHistory
Layer: 1
Undoes
EndUndoes
Redoes
EndRedoes
EndUndoRedoHistory
Fore
SplineSet
544 547 m 2
 544 446 l 2
 544 170 513 107 391 107 c 0
 241 107 233 226 233 504 c 2
 233 926 l 1
 252 931 308 978 402 978 c 0
 520 978 544 870 544 547 c 2
85 1264 m 2
 85 506 l 2
 85 210 118 -20 391 -20 c 0
 633 -20 694 145 694 442 c 2
 694 559 l 2
 694 960 625 1113 390 1102 c 0
 332 1099 276 1071 233 1013 c 1
 233 1255 l 2
 233 1574 250 1655 382 1655 c 0
 498 1655 507 1574 508 1283 c 0
 508 1271 508 1264 508 1252 c 1
 660 1252 l 1
 660 1268 660 1269 660 1284 c 0
 656 1619 626 1780 389 1780 c 0
 134 1780 85 1620 85 1264 c 2
EndSplineSet
EndChar

StartChar: slash
Encoding: 47 47 317
Width: 743
VWidth: 0
Flags: HW
LayerCount: 2
UndoRedoHistory
Layer: 1
Undoes
EndUndoes
Redoes
EndRedoes
EndUndoRedoHistory
Fore
SplineSet
538 1768 m 1
 88 0 l 1
 222 0 l 1
 673 1768 l 1
 538 1768 l 1
EndSplineSet
EndChar

StartChar: sterling
Encoding: 163 163 319
Width: 809
VWidth: 0
Flags: HW
LayerCount: 2
UndoRedoHistory
Layer: 1
Undoes
EndUndoes
Redoes
EndRedoes
EndUndoRedoHistory
Fore
SplineSet
473 1782 m 0
 265 1782 162 1643 162 1386 c 0
 162 1262 186 1112 233 936 c 1
 78 936 l 1
 78 833 l 1
 261 833 l 1
 273 771 280 698 280 633 c 0
 280 308 226 158 62 86 c 1
 62 0 l 1
 766 0 l 1
 766 107 l 1
 277 107 l 1
 389 225 415 420 415 583 c 0
 415 691 404 786 398 833 c 1
 684 833 l 1
 684 936 l 1
 378 936 l 1
 323 1148 300 1301 300 1409 c 0
 300 1604 374 1656 464 1656 c 0
 565 1656 642 1591 642 1393 c 2
 642 1246 l 1
 775 1246 l 1
 775 1381 l 2
 775 1710 606 1782 473 1782 c 0
EndSplineSet
EndChar

StartChar: summation
Encoding: 8721 8721 320
Width: 814
VWidth: 0
Flags: HW
LayerCount: 2
UndoRedoHistory
Layer: 1
Undoes
EndUndoes
Redoes
EndRedoes
EndUndoRedoHistory
Fore
SplineSet
102 1761 m 1
 102 1505 l 1
 317 881 l 1
 102 271 l 1
 102 0 l 1
 719 0 l 1
 719 275 l 1
 466 275 l 1
 674 880 l 1
 466 1501 l 1
 719 1501 l 1
 719 1761 l 1
 102 1761 l 1
EndSplineSet
EndChar

StartChar: t
Encoding: 116 116 321
Width: 582
VWidth: 0
Flags: HW
LayerCount: 2
UndoRedoHistory
Layer: 1
Undoes
EndUndoes
Redoes
EndRedoes
EndUndoRedoHistory
Fore
SplineSet
195 1760 m 1
 195 1506 l 1
 45 1506 l 1
 45 1390 l 1
 195 1390 l 1
 195 217 l 2
 195 48 224 -9 417 -9 c 2
 521 -9 l 1
 521 118 l 1
 355 118 345 129 345 209 c 2
 345 1390 l 1
 522 1390 l 1
 522 1506 l 1
 345 1506 l 1
 345 1760 l 1
 195 1760 l 1
EndSplineSet
EndChar

StartChar: thorn
Encoding: 254 254 323
Width: 882
VWidth: 0
Flags: HW
LayerCount: 2
UndoRedoHistory
Layer: 1
Undoes
EndUndoes
Redoes
EndRedoes
EndUndoRedoHistory
Fore
SplineSet
597 1062 m 2
 597 468 l 2
 597 214 571 116 461 115 c 1
 336 115 310 222 310 463 c 2
 310 1059 l 2
 310 1351 370 1387 468 1387 c 0
 586 1387 597 1260 597 1062 c 2
160 1783 m 1
 160 -265 l 1
 310 -265 l 1
 310 108 l 1
 336 40 399 -18 470 -18 c 0
 694 -18 747 194 747 475 c 2
 747 1013 l 2
 747 1298 715 1511 509 1511 c 0
 431 1511 351 1482 310 1385 c 1
 310 1783 l 1
 160 1783 l 1
EndSplineSet
EndChar

StartChar: three
Encoding: 51 51 324
Width: 746
VWidth: 0
Flags: HW
LayerCount: 2
UndoRedoHistory
Layer: 1
Undoes
EndUndoes
Redoes
EndRedoes
EndUndoRedoHistory
Fore
SplineSet
44 1321 m 2
 44 1287 l 1
 195 1287 l 1
 195 1318 l 2
 195 1597 254 1655 342 1655 c 0
 434 1655 511 1610 511 1322 c 0
 511 1014 445 982 298 982 c 2
 261 982 l 1
 261 854 l 1
 300 854 l 2
 449 854 514 771 514 472 c 0
 514 197 477 104 345 104 c 0
 211 104 190 184 190 474 c 2
 190 517 l 1
 38 517 l 1
 38 474 l 2
 38 141 120 -20 344 -20 c 0
 566 -20 664 137 664 468 c 0
 664 662 611 858 486 914 c 1
 613 962 661 1118 661 1321 c 0
 661 1623 570 1780 345 1780 c 0
 121 1780 44 1622 44 1321 c 2
EndSplineSet
EndChar

StartChar: threequarters
Encoding: 190 190 325
Width: 1555
VWidth: 0
Flags: HW
LayerCount: 2
UndoRedoHistory
Layer: 1
Undoes
EndUndoes
Redoes
EndRedoes
EndUndoRedoHistory
Fore
SplineSet
1212 1224 m 1
 936 314 l 1
 936 244 l 1
 1208 244 l 1
 1208 0 l 1
 1304 0 l 1
 1304 244 l 1
 1413 244 l 1
 1413 326 l 1
 1304 326 l 1
 1304 1224 l 1
 1212 1224 l 1
1208 326 m 1
 1027 326 l 1
 1208 989 l 1
 1208 326 l 1
156 1481 m 2
 156 1457 l 1
 261 1457 l 1
 261 1480 l 2
 261 1671 301 1711 362 1711 c 0
 426 1711 478 1680 478 1482 c 0
 478 1271 435 1244 334 1244 c 2
 303 1244 l 1
 303 1157 l 1
 334 1157 l 2
 437 1157 480 1100 480 892 c 0
 480 704 455 638 364 638 c 0
 272 638 257 694 257 893 c 2
 257 924 l 1
 152 924 l 1
 152 893 l 2
 152 662 207 551 363 551 c 0
 518 551 585 660 585 890 c 0
 585 1025 547 1160 461 1199 c 1
 549 1232 583 1341 583 1481 c 0
 583 1691 520 1800 364 1800 c 0
 208 1800 156 1690 156 1481 c 2
1013 1768 m 1
 554 0 l 1
 673 0 l 1
 1133 1768 l 1
 1013 1768 l 1
EndSplineSet
EndChar

StartChar: tilde
Encoding: 732 732 326
Width: 1117
VWidth: 0
Flags: HW
LayerCount: 2
UndoRedoHistory
Layer: 1
Undoes
EndUndoes
Redoes
EndRedoes
EndUndoRedoHistory
Fore
SplineSet
266 35 m 1
 359 -11 l 1
 377 24 388 43 410 48 c 0
 417 50 425 50 433 50 c 0
 516 50 611 -32 699 -32 c 0
 763 -32 799 -16 840 113 c 1
 849 139 l 1
 744 167 l 1
 723 107 707 99 688 96 c 1
 684 96 l 2
 634 96 515 170 434 170 c 0
 370 170 305 170 266 35 c 1
EndSplineSet
EndChar

StartChar: trademark
Encoding: 8482 8482 327
Width: 1407
VWidth: 0
Flags: HW
LayerCount: 2
UndoRedoHistory
Layer: 1
Undoes
EndUndoes
Redoes
EndRedoes
EndUndoRedoHistory
Fore
SplineSet
123 1761 m 1
 123 1674 l 1
 260 1674 l 1
 260 447 l 1
 369 447 l 1
 369 1674 l 1
 492 1674 l 1
 492 1761 l 1
 123 1761 l 1
1143 1761 m 1
 956 562 l 1
 763 1761 l 1
 631 1761 l 1
 631 447 l 1
 727 447 l 1
 727 1005 l 1
 710 1525 l 1
 899 447 l 1
 1013 447 l 1
 1195 1525 l 1
 1179 1005 l 1
 1179 447 l 1
 1274 447 l 1
 1274 1761 l 1
 1143 1761 l 1
EndSplineSet
EndChar

StartChar: two
Encoding: 50 50 328
Width: 746
VWidth: 0
Flags: HW
LayerCount: 2
UndoRedoHistory
Layer: 1
Undoes
EndUndoes
Redoes
EndRedoes
EndUndoRedoHistory
Fore
SplineSet
118 1303 m 2
 118 1065 l 1
 269 1065 l 1
 269 1299 l 2
 269 1548 307 1655 396 1655 c 0
 484 1655 522 1550 522 1305 c 0
 522 860 121 355 121 92 c 2
 121 0 l 1
 636 0 l 1
 636 121 l 1
 271 121 l 1
 345 529 660 800 660 1310 c 0
 660 1639 585 1780 409 1780 c 0
 205 1780 118 1637 118 1303 c 2
EndSplineSet
EndChar

StartChar: u
Encoding: 117 117 329
Width: 924
VWidth: 0
Flags: HW
LayerCount: 2
UndoRedoHistory
Layer: 1
Undoes
EndUndoes
Redoes
EndRedoes
EndUndoRedoHistory
Fore
SplineSet
614 1500 m 1
 615 303 l 2
 615 190 552 119 447 119 c 0
 357 119 300 174 300 292 c 2
 300 1500 l 1
 151 1500 l 1
 151 285 l 2
 151 47 293 -20 388 -20 c 0
 504 -20 591 65 615 150 c 1
 615 0 l 1
 764 0 l 1
 764 1500 l 1
 614 1500 l 1
EndSplineSet
EndChar

StartChar: underscore
Encoding: 95 95 337
Width: 748
VWidth: 0
Flags: HW
LayerCount: 2
UndoRedoHistory
Layer: 1
Undoes
EndUndoes
Redoes
EndRedoes
EndUndoRedoHistory
Fore
SplineSet
48 -64 m 1
 48 -185 l 1
 699 -185 l 1
 699 -64 l 1
 48 -64 l 1
EndSplineSet
EndChar

StartChar: uni00AD
Encoding: 173 173 339
Width: 696
VWidth: 0
Flags: HW
LayerCount: 2
UndoRedoHistory
Layer: 1
Undoes
EndUndoes
Redoes
EndRedoes
EndUndoRedoHistory
Fore
SplineSet
90 741 m 1
 90 626 l 1
 606 626 l 1
 606 741 l 1
 90 741 l 1
EndSplineSet
EndChar

StartChar: uni00B2
Encoding: 178 178 340
Width: 861
VWidth: 0
Flags: HW
LayerCount: 2
UndoRedoHistory
Layer: 1
Undoes
EndUndoes
Redoes
EndRedoes
EndUndoRedoHistory
Fore
SplineSet
260 1314 m 1
 259 1232 l 1
 375 1232 l 1
 375 1410 l 2
 375 1647 421 1681 471 1681 c 0
 520 1681 560 1645 560 1422 c 0
 560 1330 537 1200 507 1135 c 1
 522 1153 264 572 264 492 c 2
 264 420 l 1
 651 420 l 1
 651 498 l 1
 375 498 l 1
 408 853 670 1047 670 1406 c 0
 670 1575 653 1778 488 1778 c 0
 266 1778 260 1603 260 1314 c 1
EndSplineSet
EndChar

StartChar: uni00B3
Encoding: 179 179 341
Width: 880
VWidth: 0
Flags: HW
LayerCount: 2
UndoRedoHistory
Layer: 1
Undoes
EndUndoes
Redoes
EndRedoes
EndUndoRedoHistory
Fore
SplineSet
237 1460 m 2
 237 1437 l 1
 337 1437 l 1
 337 1459 l 2
 337 1650 377 1689 436 1689 c 0
 499 1689 550 1659 550 1462 c 0
 550 1251 507 1226 408 1227 c 1
 379 1227 l 1
 379 1140 l 1
 410 1140 l 2
 510 1140 553 1085 553 878 c 0
 553 691 527 626 438 626 c 0
 347 626 333 682 333 879 c 2
 333 909 l 1
 233 909 l 1
 233 880 l 2
 233 652 287 542 438 542 c 0
 586 542 651 649 651 876 c 0
 651 1008 614 1143 530 1181 c 1
 616 1214 649 1322 649 1460 c 0
 649 1667 589 1775 438 1775 c 0
 287 1775 237 1666 237 1460 c 2
EndSplineSet
EndChar

StartChar: uni00B9
Encoding: 185 185 342
Width: 626
VWidth: 0
Flags: HW
LayerCount: 2
UndoRedoHistory
Layer: 1
Undoes
EndUndoes
Redoes
EndRedoes
EndUndoRedoHistory
Fore
SplineSet
309 1759 m 1
 263 1657 182 1603 103 1591 c 1
 103 1517 l 1
 158 1517 232 1540 266 1585 c 1
 266 414 l 1
 377 414 l 1
 377 1759 l 1
 309 1759 l 1
EndSplineSet
EndChar

StartChar: uni0237
Encoding: 567 567 383
Width: 513
VWidth: 0
Flags: HW
LayerCount: 2
UndoRedoHistory
Layer: 1
Undoes
EndUndoes
Redoes
EndRedoes
EndUndoRedoHistory
Fore
SplineSet
203 1500 m 1
 203 24 l 2
 203 -13 195 -38 166 -43 c 1
 136 -46 95 -42 95 -42 c 1
 95 -149.825447929 l 1
 97.8281403756 -149.189523487 161.129607705 -161.603289164 229 -153 c 1
 261 -147 352 -122 352 34 c 2
 352 1500 l 1
 203 1500 l 1
95 -149.825447929 m 2
 95 -150 l 2
 94.8677630547 -149.911842036 95 -149.854771379 95 -149.825447929 c 2
EndSplineSet
EndChar

StartChar: uni02C9
Encoding: 713 713 384
Width: 696
VWidth: 0
Flags: HW
LayerCount: 2
UndoRedoHistory
Layer: 1
Undoes
EndUndoes
Redoes
EndRedoes
EndUndoRedoHistory
Fore
SplineSet
90 741 m 1
 90 626 l 1
 606 626 l 1
 606 741 l 1
 90 741 l 1
EndSplineSet
EndChar

StartChar: uni0307
Encoding: 775 775 385
Width: 572
VWidth: 0
Flags: HW
LayerCount: 2
UndoRedoHistory
Layer: 1
Undoes
EndUndoes
Redoes
EndRedoes
EndUndoRedoHistory
Fore
SplineSet
147 260 m 1
 147 -8 l 1
 425 -8 l 1
 425 260 l 1
 147 260 l 1
EndSplineSet
EndChar

StartChar: uni0311
Encoding: 785 785 386
Width: 1016
VWidth: 0
Flags: HW
LayerCount: 2
UndoRedoHistory
Layer: 1
Undoes
EndUndoes
Redoes
EndRedoes
EndUndoRedoHistory
Fore
SplineSet
313 1609 m 1
 313 1596 l 1
 377 1599 l 1
 375 1694 443 1714 499 1715 c 0
 560 1717 629 1697 631 1606 c 1
 695 1609 l 1
 695 1624 l 1
 692 1739 623 1811 499 1806 c 1
 369 1803 310 1722 313 1609 c 1
EndSplineSet
EndChar

StartChar: uni2074
Encoding: 8308 8308 401
Width: 857
VWidth: 0
Flags: HW
LayerCount: 2
UndoRedoHistory
Layer: 1
Undoes
EndUndoes
Redoes
EndRedoes
EndUndoRedoHistory
Fore
SplineSet
489 873 m 1
 310 873 l 1
 489 1533 l 1
 489 873 l 1
495 1760 m 1
 224 862 l 1
 224 795 l 1
 489 795 l 1
 489 554 l 1
 580 554 l 1
 580 795 l 1
 688 795 l 1
 688 873 l 1
 580 873 l 1
 580 1760 l 1
 495 1760 l 1
EndSplineSet
EndChar

StartChar: uni2215
Encoding: 8725 8725 402
Width: 829
VWidth: 0
Flags: HW
LayerCount: 2
UndoRedoHistory
Layer: 1
Undoes
EndUndoes
Redoes
EndRedoes
EndUndoRedoHistory
Fore
SplineSet
536 1768 m 1
 94 0 l 1
 231 0 l 1
 673 1768 l 1
 536 1768 l 1
EndSplineSet
EndChar

StartChar: uniFB00
Encoding: 65537 -1 404
Width: 1220
VWidth: 0
Flags: HW
LayerCount: 2
UndoRedoHistory
Layer: 1
Undoes
EndUndoes
Redoes
EndRedoes
EndUndoRedoHistory
Fore
SplineSet
834 1442 m 1
 374 1442 l 1
 374 1534 l 2
 374 1606 381 1657 492 1657 c 0
 514 1657 541 1655 573 1650 c 1
 573 1770.99 l 1
 570.177 1771.73 510.45 1789 438 1789 c 0
 277 1789 224 1688 224 1512 c 2
 224 1442 l 1
 84 1442 l 1
 84 1329 l 1
 224 1329 l 1
 224 0 l 1
 374 0 l 1
 374 1329 l 1
 834 1329 l 1
 834 0 l 1
 984 0 l 1
 984 1329 l 1
 1183 1329 l 1
 1183 1442 l 1
 984 1442 l 1
 984 1534 l 2
 984 1606 991 1657 1102 1657 c 0
 1124 1657 1151 1655 1183 1650 c 1
 1183 1770.99 l 1
 1180.18 1771.73 1120.45 1789 1048 1789 c 0
 887 1789 834 1688 834 1512 c 2
 834 1442 l 1
EndSplineSet
EndChar

StartChar: uniFB01
Encoding: 64257 64257 405
Width: 1084
VWidth: 0
Flags: HW
LayerCount: 2
UndoRedoHistory
Layer: 1
Undoes
EndUndoes
Redoes
EndRedoes
EndUndoRedoHistory
Fore
SplineSet
922 0 m 1
 922 1500 l 1
 374 1500 l 1
 374 1540 l 2
 374 1612 381 1663 492 1663 c 0
 514 1663 541 1661 573 1656 c 1
 573 1777 l 1
 570 1778 510 1795 438 1795 c 0
 277 1795 224 1694 224 1518 c 2
 224 1501 l 1
 84 1501 l 1
 84 1388 l 1
 224 1388 l 1
 224 0 l 1
 374 0 l 1
 374 1388 l 1
 772 1388 l 1
 772 0 l 1
 922 0 l 1
922 1615 m 1
 922 1800 l 1
 772 1800 l 1
 772 1615 l 1
 922 1615 l 1
EndSplineSet
EndChar

StartChar: uniFB02
Encoding: 64258 64258 406
Width: 1080
VWidth: 0
Flags: HW
LayerCount: 2
UndoRedoHistory
Layer: 1
Undoes
EndUndoes
Redoes
EndRedoes
EndUndoRedoHistory
Fore
SplineSet
505 1811 m 0
 259 1811 224 1686 224 1512 c 2
 224 1442 l 1
 84 1442 l 1
 84 1329 l 1
 224 1329 l 1
 224 0 l 1
 374 0 l 1
 374 1329 l 1
 573 1329 l 1
 573 1442 l 1
 374 1442 l 1
 374 1541 l 2
 374 1596 372 1691 549 1691 c 0
 604 1691 676 1682 770 1660 c 1
 770 0 l 1
 920 0 l 1
 920 1744 l 1
 739 1790 605 1811 505 1811 c 0
EndSplineSet
EndChar

StartChar: uniFB03
Encoding: 65538 -1 407
Width: 1694
VWidth: 0
Flags: HW
LayerCount: 2
UndoRedoHistory
Layer: 1
Undoes
EndUndoes
Redoes
EndRedoes
EndUndoRedoHistory
Fore
SplineSet
984 1500 m 1
 984 1541 l 2
 984 1613 991 1664 1102 1664 c 0
 1124 1664 1151 1662 1183 1657 c 1
 1183 1778 l 1
 1180 1779 1120 1796 1048 1796 c 0
 887 1796 834 1695 834 1519 c 2
 834 1500 l 1
 374 1500 l 1
 374 1541 l 2
 374 1613 381 1664 492 1664 c 0
 514 1664 541 1662 573 1657 c 1
 573 1778 l 1
 570 1779 510 1796 438 1796 c 0
 277 1796 224 1695 224 1519 c 2
 224 1500 l 1
 84 1500 l 1
 84 1387 l 1
 224 1387 l 1
 224 0 l 1
 374 0 l 1
 374 1387 l 1
 834 1387 l 1
 834 0 l 1
 984 0 l 1
 984 1387 l 1
 1382 1387 l 1
 1382 0 l 1
 1532 0 l 1
 1532 1500 l 1
 984 1500 l 1
1382 1800 m 1
 1382 1615 l 1
 1532 1615 l 1
 1532 1800 l 1
 1382 1800 l 1
EndSplineSet
EndChar

StartChar: uniFB04
Encoding: 65539 -1 408
Width: 1635
VWidth: 0
Flags: HW
LayerCount: 2
UndoRedoHistory
Layer: 1
Undoes
EndUndoes
Redoes
EndRedoes
EndUndoRedoHistory
Fore
SplineSet
779 1442 m 1
 374 1442 l 1
 374 1534 l 2
 374 1606 381 1657 492 1657 c 0
 514 1657 541 1655 573 1650 c 1
 573 1770.99 l 1
 570.177 1771.73 510.45 1789 438 1789 c 0
 277 1789 224 1688 224 1512 c 2
 224 1442 l 1
 84 1442 l 1
 84 1329 l 1
 224 1329 l 1
 224 0 l 1
 374 0 l 1
 374 1329 l 1
 779 1329 l 1
 779 0 l 1
 929 0 l 1
 929 1329 l 1
 1128 1329 l 1
 1128 1442 l 1
 929 1442 l 1
 929 1541 l 2
 929 1596 927 1691 1104 1691 c 0
 1159 1691 1231 1682 1325 1660 c 1
 1325 0 l 1
 1475 0 l 1
 1475 1744 l 1
 1294 1790 1160 1811 1060 1811 c 0
 814 1811 779 1686 779 1512 c 2
 779 1442 l 1
EndSplineSet
EndChar

StartChar: v
Encoding: 118 118 412
Width: 677
VWidth: 0
Flags: HW
LayerCount: 2
UndoRedoHistory
Layer: 1
Undoes
EndUndoes
Redoes
EndRedoes
EndUndoRedoHistory
Fore
SplineSet
497 1500 m 1
 387 625 l 1
 347 259 l 1
 337 259 l 1
 297 624 l 1
 179 1500 l 1
 45 1500 l 1
 264 0 l 1
 413 0 l 1
 631 1500 l 1
 497 1500 l 1
EndSplineSet
EndChar

StartChar: w
Encoding: 119 119 413
Width: 1075
VWidth: 0
Flags: HW
LayerCount: 2
UndoRedoHistory
Layer: 1
Undoes
EndUndoes
Redoes
EndRedoes
EndUndoRedoHistory
Fore
SplineSet
885 1500 m 1
 810 648 l 1
 790 302 l 1
 780 302 l 1
 740 646 l 1
 603 1500 l 1
 577 1500 l 1
 523 1500 l 1
 476 1500 l 1
 350 614 l 1
 320 302 l 1
 308 302 l 1
 284 613 l 1
 194 1500 l 1
 57 1500 l 1
 233 0 l 1
 375 0 l 1
 547.834224599 1283.42245989 l 1
 695 0 l 1
 843 0 l 1
 1017 1500 l 1
 885 1500 l 1
EndSplineSet
EndChar

StartChar: x
Encoding: 120 120 418
Width: 670
VWidth: 0
Flags: HW
LayerCount: 2
UndoRedoHistory
Layer: 1
Undoes
EndUndoes
Redoes
EndRedoes
EndUndoRedoHistory
Fore
SplineSet
400.639842983 779.209308846 m 1
 633 1500 l 1
 491 1500 l 1
 341.710565389 973.481652565 l 1
 182 1500 l 1
 52 1500 l 1
 271.381296667 762.170526903 l 1
 34 0 l 1
 166 0 l 1
 327.335742321 573.982929412 l 1
 498 0 l 1
 637 0 l 1
 400.639842983 779.209308846 l 1
EndSplineSet
EndChar

StartChar: y
Encoding: 121 121 419
Width: 733
VWidth: 0
Flags: HW
LayerCount: 2
UndoRedoHistory
Layer: 1
Undoes
EndUndoes
Redoes
EndRedoes
EndUndoRedoHistory
Fore
SplineSet
541 1500 m 1
 434 707 l 1
 391 299 l 1
 378 299 l 1
 330 707 l 1
 211 1500 l 1
 61 1500 l 1
 311 38 l 2
 321 -26 330 -76 308 -99 c 1
 296 -107 241 -110 185 -110 c 2
 130 -110 l 1
 130 -238 l 1
 254 -238 l 2
 408 -238 423 -178 451 3 c 2
 690 1500 l 1
 541 1500 l 1
EndSplineSet
EndChar

StartChar: yen
Encoding: 165 165 423
Width: 821
VWidth: 0
Flags: HW
LayerCount: 2
UndoRedoHistory
Layer: 1
Undoes
EndUndoes
Redoes
EndRedoes
EndUndoRedoHistory
Fore
SplineSet
77 824 m 1
 77 741 l 1
 412 741 l 1
 412 544 l 1
 77 544 l 1
 77 462 l 1
 753 462 l 1
 753 544 l 1
 465 544 l 1
 465 741 l 1
 753 741 l 1
 753 824 l 1
 77 824 l 1
EndSplineSet
Refer: 115 89 N 1 0 0 1 0 0 2
EndChar

StartChar: z
Encoding: 122 122 425
Width: 635
VWidth: 0
Flags: HW
LayerCount: 2
UndoRedoHistory
Layer: 1
Undoes
EndUndoes
Redoes
EndRedoes
EndUndoRedoHistory
Fore
SplineSet
107 1500 m 1
 107 1371 l 1
 411 1371 l 1
 82 108 l 1
 82 0 l 1
 550 0 l 1
 550 130 l 1
 236 130 l 1
 570 1407 l 1
 570 1500 l 1
 107 1500 l 1
EndSplineSet
EndChar

StartChar: zero
Encoding: 48 48 429
Width: 746
VWidth: 0
Flags: HW
LayerCount: 2
UndoRedoHistory
Layer: 1
Undoes
EndUndoes
Redoes
EndRedoes
EndUndoRedoHistory
Fore
SplineSet
540 1327 m 2
 540 470 l 2
 540 212 489 102 369 102 c 0
 256 102 208 212 208 470 c 2
 208 1328 l 2
 208 1558 256 1657 369 1657 c 0
 489 1657 540 1558 540 1327 c 2
60 1316 m 2
 60 475 l 2
 60 128 154 -21 372 -21 c 0
 594 -21 689 128 689 475 c 2
 689 1316 l 2
 689 1642 594 1781 372 1781 c 0
 154 1781 60 1642 60 1316 c 2
EndSplineSet
EndChar
